<svg width="164" height="169" viewBox="0 0 164 169" fill="none" xmlns="http://www.w3.org/2000/svg">
<path d="M130.689 115.093C130.24 113.613 129.817 112.195 129.286 110.81C127.854 107.057 125.751 103.688 123.401 100.461C119.652 95.3202 115.973 90.1458 112.669 84.6915C107.613 76.3278 104.361 67.3453 102.958 57.6779C102.206 52.5145 102.505 47.4359 104.059 42.4419C104.976 39.5067 106.397 36.8182 108.887 34.9694C112.327 32.4135 116.098 30.5205 120.495 30.2038C121.173 30.1596 121.714 30.3253 122.234 30.7636C126.241 34.115 130.034 37.6726 133.135 41.9079C134.785 44.1544 136.372 46.4489 137.731 48.8906C140.081 53.0964 141.314 57.6152 141.462 62.425C141.554 65.4413 141.605 68.4539 141.281 71.4591C140.917 74.8436 139.97 78.0956 139.016 81.3475C138.357 83.5977 137.543 85.789 136.53 87.914C136.085 88.8532 135.731 89.8328 135.363 90.8051C135.245 91.1144 135.138 91.4569 135.149 91.7773C135.164 92.3077 135.356 92.8306 135.827 93.1105C136.287 93.3794 136.652 92.9927 137.031 92.7607C138.225 92.0388 138.991 90.9708 139.598 89.7518C141.517 85.9106 142.928 81.8778 144.283 77.8193C146.901 69.9786 147.317 62.0052 145.763 53.9103C144.89 49.3841 142.953 45.3108 140.523 41.4365C137.871 37.2086 134.523 33.5736 130.921 30.1633C129.839 29.1395 128.741 28.1377 127.629 27.1507C127.268 26.834 127.143 26.5467 127.382 26.0937C128.657 23.6483 130.262 21.4902 132.671 20.0391C134.291 19.0595 136.059 18.7281 137.93 19.0595C141.373 19.6598 144.493 21.0556 147.222 23.1953C156.941 30.8004 162.325 40.7736 162.97 53.1222C163.5 63.2353 161.283 72.8622 157.14 82.0657C154.853 87.137 152.057 91.9062 148.592 96.2704C146.253 99.2204 143.712 101.99 141.141 104.73C138.015 108.07 134.774 111.304 131.525 114.53C131.316 114.733 131.15 115.001 130.689 115.093ZM74.7764 152.187C74.3161 152.154 73.8594 152.139 73.4027 152.095C64.1367 151.152 55.4783 148.276 47.2913 143.897C43.9031 142.085 40.8721 139.746 37.9295 137.29C34.5745 134.495 31.3483 131.563 28.4573 128.282C27.8238 127.56 27.264 126.779 26.8258 125.928C26.3065 124.908 26.6969 124.164 27.787 123.818C28.623 123.557 29.1901 123.999 29.7463 124.474C31.9965 126.37 34.2283 128.3 36.4859 130.189C38.3052 131.714 40.0619 133.316 42.058 134.613C49.2727 139.308 57.0804 142.468 65.6503 143.643C67.8932 143.956 70.136 144.181 72.401 144.14C73.5169 144.122 73.7673 143.938 74.1062 142.84C74.4523 141.743 74.7838 140.645 75.1226 139.548C75.3804 138.701 75.5093 137.835 75.5314 136.951C75.664 132.296 74.3345 128.145 71.4287 124.466C68.917 121.292 66.0113 118.555 62.7814 116.128C55.4378 110.589 47.2729 107.882 38.0106 108.527C32.3574 108.921 26.7116 109.33 21.0695 109.845C17.9648 110.129 14.8749 110.022 11.8292 109.275C11.6009 109.216 11.3468 109.05 11.0632 109.297C11.5493 110.91 12.0723 112.508 12.5105 114.132C13.8253 118.968 15.0517 123.825 16.5874 128.602C18.3478 134.075 20.3403 139.441 23.2681 144.424C25.6951 148.559 28.2805 152.574 31.5803 156.08C36.7253 161.556 43.0966 164.974 50.2524 167.033C53.1765 167.872 56.1633 168.296 59.2127 168.178C62.2142 168.056 65.0537 167.368 67.536 165.6C70.287 163.652 72.5557 161.228 74.2829 158.33C75.3767 156.507 75.8666 154.47 76.0875 152.29C75.5977 152.25 75.1852 152.213 74.7764 152.187ZM59.6436 0.722613C55.5667 1.1756 51.4677 1.24557 47.3761 1.3892C41.2736 1.60649 35.2153 2.1847 29.3227 3.83462C22.5426 5.73865 16.2597 8.61863 11.0411 13.5131C4.64765 19.5088 0.968484 26.8119 0.408691 35.5992C0.198768 38.7922 0.438155 41.9558 1.55038 44.9978C2.10649 46.5188 2.86147 47.9367 3.99578 49.1079C4.88335 50.0175 5.19271 49.9218 5.54995 48.7543C8.25684 39.9486 12.7573 32.1557 18.7824 25.2172C23.003 20.3485 28.3099 16.9934 34.0184 14.1871C34.8396 13.7857 35.7198 13.5021 36.589 13.2148C37.2556 12.9902 37.8743 13.0933 38.3641 13.6641C39.4763 14.9531 39.3695 16.0838 38.029 17.1002C37.9369 17.1702 37.8338 17.2218 37.7417 17.2917C35.3184 19.0374 32.7625 20.5842 30.3908 22.3962C28.3836 23.9319 26.4059 25.5119 24.7044 27.3901C23.316 28.9185 22.016 30.5279 20.7822 32.1889C19.0439 34.5238 17.3903 36.9066 16.2891 39.6282C14.7902 43.3221 13.5344 47.097 12.5068 50.9456C12.4332 51.2402 12.3743 51.5422 12.3153 51.8442C12.2675 52.0836 12.3632 52.253 12.551 52.4335C15.0222 54.8163 17.928 56.4551 21.1468 57.5821C24.1446 58.6354 27.1793 58.8637 30.3024 58.2082C36.9204 56.8198 42.3932 53.5052 46.7463 48.386C50.4586 44.0182 53.1102 39.0463 54.7086 33.5221C56.1707 28.4655 57.073 23.3132 57.5665 18.0762C58.0195 13.3069 58.7855 8.58549 59.6694 3.87881C59.8609 2.84025 60.1371 1.81274 60.3655 0.810997C60.0929 0.604758 59.8572 0.700511 59.6436 0.722613Z" fill="#87C75C" fill-opacity="0.4"/>
</svg>
