<svg xmlns="http://www.w3.org/2000/svg" xmlns:xlink="http://www.w3.org/1999/xlink" width="500" zoomAndPan="magnify" viewBox="0 0 375 374.999991" height="500" preserveAspectRatio="xMidYMid meet" version="1.0"><defs><clipPath id="0f56325ce4"><path d="M 119.871094 127 L 254.871094 127 L 254.871094 248 L 119.871094 248 Z M 119.871094 127 " clip-rule="nonzero"/></clipPath></defs><g clip-path="url(#0f56325ce4)"><path fill="#090907" d="M 235.339844 194.261719 C 235.195312 192.601562 234.914062 190.984375 234.472656 189.402344 C 232.855469 183.625 230.351562 178.28125 226.597656 173.558594 C 225.882812 172.660156 225.078125 171.847656 224.234375 171.078125 C 224.027344 170.890625 223.8125 170.707031 223.636719 170.492188 C 223.175781 169.929688 223.265625 169.402344 223.898438 169.03125 C 224.574219 168.632812 225.320312 168.390625 226.0625 168.152344 C 226.644531 167.964844 227.230469 167.78125 227.808594 167.574219 C 228.058594 167.484375 228.289062 167.382812 228.464844 167.109375 C 228.757812 166.652344 229.480469 166.660156 229.699219 167.148438 C 230.140625 168.144531 230.925781 168.871094 231.539062 169.722656 C 234.292969 173.542969 236.199219 177.761719 237.660156 182.214844 C 239.074219 186.53125 239.953125 190.945312 240.363281 195.464844 C 240.382812 195.710938 240.359375 195.96875 240.550781 196.230469 C 241.542969 195.933594 242.554688 195.632812 243.601562 195.503906 C 245.742188 195.242188 247.78125 195.46875 249.601562 196.742188 C 250.34375 197.261719 250.9375 197.921875 251.433594 198.675781 C 252.972656 200.996094 253.894531 203.558594 254.214844 206.308594 C 255.113281 214.09375 253.453125 221.285156 249.03125 227.785156 C 246.359375 231.710938 242.890625 234.84375 239.035156 237.574219 C 232.742188 242.027344 225.765625 244.839844 218.21875 246.292969 C 215.5 246.8125 212.742188 247.003906 209.984375 247.15625 C 204.964844 247.433594 199.941406 247.367188 194.917969 247.402344 C 194.578125 247.402344 194.234375 247.421875 194.027344 247.074219 C 193.804688 246.695312 194 246.375 194.203125 246.070312 C 196.503906 242.601562 197.648438 238.71875 198.285156 234.660156 C 199.128906 229.261719 200.035156 223.875 201.457031 218.585938 C 203.378906 211.449219 206.667969 205.015625 211.238281 199.238281 C 213.550781 196.3125 216.40625 194.011719 219.75 192.328125 C 221.492188 191.449219 223.335938 190.960938 225.289062 190.882812 C 227.199219 190.804688 228.980469 191.371094 230.746094 191.988281 C 232.351562 192.550781 233.902344 193.234375 235.339844 194.261719 Z M 195.550781 246.125 C 195.84375 246.320312 196.074219 246.265625 196.292969 246.269531 C 199.726562 246.28125 203.160156 246.285156 206.589844 246.171875 C 209.40625 246.082031 212.222656 245.960938 215.027344 245.636719 C 219.179688 245.160156 223.191406 244.113281 227.09375 242.636719 C 234.171875 239.953125 240.453125 236.023438 245.535156 230.378906 C 251.742188 223.488281 254.175781 215.34375 253.054688 206.15625 C 252.742188 203.574219 251.828125 201.179688 250.320312 199.035156 C 249.503906 197.867188 248.390625 197.105469 247.011719 196.765625 C 244.964844 196.257812 242.96875 196.550781 240.996094 197.171875 C 240.628906 197.285156 240.542969 197.503906 240.566406 197.863281 C 240.632812 198.976562 240.683594 200.089844 240.714844 201.207031 C 240.816406 204.925781 240.664062 208.628906 239.828125 212.277344 C 239.0625 215.621094 237.929688 218.808594 235.992188 221.671875 C 232.523438 226.789062 228.074219 230.796875 222.527344 233.566406 C 219.65625 235 216.769531 236.390625 213.714844 237.410156 C 212.746094 237.734375 211.773438 237.894531 210.757812 237.644531 C 210.433594 237.566406 210.035156 237.578125 209.933594 237.191406 C 209.832031 236.792969 210.007812 236.414062 210.28125 236.125 C 210.445312 235.949219 210.683594 235.824219 210.910156 235.722656 C 211.621094 235.402344 212.328125 235.070312 213.0625 234.808594 C 214.726562 234.21875 216.320312 233.488281 217.863281 232.644531 C 220.09375 231.425781 222.320312 230.203125 224.308594 228.601562 C 226.074219 227.179688 227.644531 225.554688 229.195312 223.90625 C 231.667969 221.277344 233.410156 218.226562 234.394531 214.75 C 234.96875 212.734375 235.34375 210.675781 235.660156 208.609375 C 236.261719 204.71875 236.136719 200.820312 235.789062 196.917969 C 235.746094 196.410156 235.546875 196.035156 235.164062 195.699219 C 232.664062 193.535156 229.660156 192.539062 226.480469 192.070312 C 224.179688 191.730469 222 192.402344 219.957031 193.472656 C 216.484375 195.296875 213.632812 197.832031 211.292969 200.96875 C 206.910156 206.839844 203.871094 213.328125 202.117188 220.445312 C 200.976562 225.089844 200.183594 229.785156 199.445312 234.5 C 198.980469 237.457031 198.308594 240.359375 197.078125 243.109375 C 196.625 244.125 196.097656 245.101562 195.550781 246.125 Z M 211.867188 236.65625 C 212.699219 236.652344 213.316406 236.382812 213.9375 236.148438 C 216.597656 235.136719 219.175781 233.9375 221.734375 232.683594 C 225.667969 230.75 229.089844 228.152344 232.011719 224.898438 C 234.246094 222.410156 236.136719 219.703125 237.34375 216.550781 C 238.960938 212.320312 239.582031 207.925781 239.601562 203.429688 C 239.613281 200.164062 239.375 196.910156 239.007812 193.664062 C 238.355469 187.929688 236.804688 182.453125 234.503906 177.179688 C 233.167969 174.121094 231.421875 171.304688 229.300781 168.71875 C 229.027344 168.386719 228.816406 168.273438 228.402344 168.476562 C 227.75 168.792969 227.054688 169.003906 226.363281 169.226562 C 225.820312 169.402344 225.257812 169.558594 224.820312 169.886719 C 224.824219 170.082031 224.917969 170.152344 225 170.222656 C 226.773438 171.746094 228.175781 173.589844 229.460938 175.523438 C 234.292969 182.796875 236.703125 190.847656 237.160156 199.527344 C 237.398438 204.097656 237.050781 208.613281 236.015625 213.078125 C 235.421875 215.648438 234.640625 218.15625 233.246094 220.402344 C 230.617188 224.628906 227.171875 228.121094 223.0625 230.90625 C 219.941406 233.023438 216.628906 234.820312 213.035156 236.050781 C 212.675781 236.175781 212.292969 236.28125 211.867188 236.65625 Z M 151.140625 232.140625 C 151.269531 232.4375 151.546875 232.554688 151.765625 232.726562 C 157.179688 236.976562 163.316406 239.707031 169.953125 241.386719 C 171.664062 241.820312 173.375 242.082031 175.148438 241.917969 C 176.109375 241.832031 176.484375 242.226562 176.40625 243.1875 C 176.300781 244.476562 176.140625 245.757812 176.003906 247.042969 C 175.960938 247.441406 175.738281 247.5625 175.34375 247.671875 C 173.824219 248.097656 172.332031 247.753906 170.839844 247.597656 C 166.890625 247.179688 163.03125 246.363281 159.324219 244.878906 C 155.214844 243.234375 151.433594 241.054688 148.140625 238.078125 C 147.816406 237.785156 147.613281 237.773438 147.277344 238.039062 C 145.914062 239.109375 144.449219 240.011719 142.738281 240.414062 C 139.902344 241.078125 137.046875 241.132812 134.207031 240.472656 C 132.183594 240 130.453125 238.917969 128.917969 237.539062 C 126.058594 234.980469 124.089844 231.804688 122.609375 228.304688 C 121.289062 225.199219 120.359375 221.984375 120.082031 218.605469 C 119.867188 215.933594 120.03125 213.273438 120.445312 210.625 C 121.507812 203.832031 123.855469 197.492188 127.132812 191.472656 C 128.3125 189.308594 129.464844 187.125 130.738281 185.015625 C 131.941406 183.023438 133.042969 180.976562 134.113281 178.917969 C 134.191406 178.765625 134.261719 178.605469 134.347656 178.457031 C 134.875 177.507812 135.515625 177.453125 136.0625 178.414062 C 137.816406 181.5 140.382812 183.808594 143.097656 186.003906 C 146.113281 188.441406 149.019531 191.003906 151.855469 193.644531 C 156.335938 197.8125 158.875 203.003906 159.980469 208.953125 C 160.445312 211.4375 160.738281 213.949219 160.65625 216.484375 C 160.578125 218.898438 160.386719 221.316406 159.496094 223.585938 C 158.207031 226.863281 156.15625 229.511719 152.929688 231.128906 C 152.320312 231.433594 151.695312 231.730469 151.140625 232.140625 Z M 146.867188 236.894531 C 146.628906 236.613281 146.429688 236.375 146.226562 236.144531 C 146 235.882812 145.765625 235.632812 145.546875 235.367188 C 141.132812 229.953125 138.066406 223.835938 136.046875 217.171875 C 135.210938 214.414062 134.84375 211.566406 134.585938 208.703125 C 134.289062 205.441406 134.132812 202.175781 134.339844 198.902344 C 134.386719 198.183594 134.503906 197.472656 134.722656 196.789062 C 134.988281 195.972656 135.589844 195.785156 136.351562 196.179688 C 136.933594 196.484375 137 197.019531 137.042969 197.566406 C 137.230469 199.765625 137.390625 201.972656 137.585938 204.171875 C 137.742188 205.945312 137.824219 207.726562 138.195312 209.472656 C 139.53125 215.789062 141.996094 221.605469 145.917969 226.773438 C 146.941406 228.128906 148.011719 229.4375 149.234375 230.617188 C 149.835938 231.199219 150.066406 231.234375 150.828125 230.832031 C 151.59375 230.433594 152.351562 230.027344 153.113281 229.625 C 153.699219 229.3125 154.226562 228.921875 154.707031 228.464844 C 157.246094 226.066406 158.742188 223.160156 159.152344 219.667969 C 159.503906 216.652344 159.414062 213.660156 158.988281 210.660156 C 158.03125 203.828125 155.136719 198.0625 149.882812 193.492188 C 146.675781 190.703125 143.464844 187.925781 140.199219 185.207031 C 138.402344 183.710938 136.820312 182.015625 135.601562 180.003906 C 135.511719 179.851562 135.464844 179.628906 135.183594 179.609375 C 134.585938 180.722656 134.015625 181.847656 133.386719 182.941406 C 131.519531 186.203125 129.59375 189.429688 127.875 192.777344 C 125.90625 196.613281 124.117188 200.515625 123.027344 204.710938 C 122.121094 208.191406 121.363281 211.691406 121.253906 215.300781 C 121.078125 220.933594 122.644531 226.125 125.347656 231.011719 C 126.453125 233.007812 127.8125 234.816406 129.492188 236.371094 C 131.148438 237.898438 133.019531 239.039062 135.273438 239.417969 C 137.765625 239.84375 140.253906 239.761719 142.707031 239.140625 C 144.253906 238.753906 145.59375 237.933594 146.867188 236.894531 Z M 135.792969 198.390625 C 135.550781 199.121094 135.566406 199.777344 135.554688 200.429688 C 135.503906 203.128906 135.632812 205.820312 135.875 208.511719 C 136.117188 211.199219 136.464844 213.871094 137.203125 216.472656 C 138.746094 221.933594 141.195312 226.972656 144.363281 231.671875 C 145.695312 233.652344 147.195312 235.511719 148.976562 237.105469 C 152.953125 240.671875 157.570312 243.101562 162.652344 244.671875 C 166.230469 245.777344 169.921875 246.308594 173.632812 246.675781 C 175.054688 246.816406 174.871094 246.859375 174.96875 245.519531 C 174.996094 245.175781 175.054688 244.835938 175.074219 244.492188 C 175.097656 244.070312 175.21875 243.644531 175.070312 243.210938 C 173.691406 243.386719 172.351562 243.253906 171.035156 242.964844 C 166.191406 241.894531 161.5625 240.230469 157.207031 237.84375 C 153.636719 235.890625 150.328125 233.578125 147.46875 230.667969 C 145.613281 228.773438 144.15625 226.5625 142.675781 224.375 C 141.265625 222.289062 140.308594 219.980469 139.339844 217.683594 C 137.957031 214.390625 136.945312 210.980469 136.574219 207.414062 C 136.265625 204.449219 136.054688 201.472656 135.792969 198.390625 Z M 164.828125 150.914062 C 164.722656 150.898438 164.628906 150.957031 164.539062 151.027344 C 161.15625 153.644531 157.742188 156.222656 154.613281 159.148438 C 153.371094 160.3125 152.292969 161.613281 151.367188 163.039062 C 150.804688 163.90625 150.238281 164.769531 149.628906 165.605469 C 148.972656 166.503906 148.476562 166.5625 147.625 165.875 C 146.679688 165.117188 145.691406 164.445312 144.546875 164.019531 C 144.082031 163.847656 143.910156 163.015625 144.207031 162.460938 C 144.300781 162.285156 144.4375 162.132812 144.558594 161.96875 C 146.382812 159.519531 148.523438 157.359375 150.757812 155.289062 C 153.730469 152.542969 156.675781 149.761719 159.976562 147.402344 C 160.722656 146.867188 161.484375 146.351562 162.253906 145.851562 C 162.550781 145.664062 162.617188 145.519531 162.449219 145.175781 C 162.035156 144.335938 162.160156 143.4375 162.3125 142.554688 C 162.761719 139.949219 164.097656 137.796875 165.839844 135.875 C 169.886719 131.414062 174.90625 128.757812 180.851562 127.824219 C 186.523438 126.933594 191.917969 127.957031 197.15625 130.15625 C 201.542969 131.992188 205.40625 134.644531 209.050781 137.648438 C 210.777344 139.074219 212.410156 140.609375 214.042969 142.140625 C 215.90625 143.890625 217.800781 145.601562 219.789062 147.210938 C 219.964844 147.355469 220.148438 147.496094 220.304688 147.664062 C 220.742188 148.144531 220.691406 148.585938 220.171875 148.980469 C 220.101562 149.03125 220.023438 149.066406 219.949219 149.109375 C 215.910156 151.394531 212.273438 154.242188 208.679688 157.144531 C 206.132812 159.207031 203.476562 161.105469 200.667969 162.796875 C 196.53125 165.289062 192.09375 166.910156 187.28125 167.410156 C 181.40625 168.023438 175.996094 166.75 171.136719 163.3125 C 168.90625 161.734375 167.417969 159.597656 166.390625 157.109375 C 165.613281 155.222656 164.949219 153.296875 164.964844 151.210938 C 164.96875 151.101562 164.972656 150.976562 164.828125 150.914062 Z M 218.863281 148.222656 C 218.828125 147.96875 218.652344 147.894531 218.527344 147.792969 C 216.125 145.871094 213.914062 143.734375 211.667969 141.640625 C 208.316406 138.519531 204.796875 135.613281 200.796875 133.363281 C 196.191406 130.777344 191.332031 128.972656 185.96875 128.800781 C 179.398438 128.589844 173.574219 130.511719 168.617188 134.875 C 166.8125 136.457031 165.261719 138.261719 164.238281 140.464844 C 163.726562 141.566406 163.375 142.71875 163.355469 143.941406 C 163.34375 144.894531 163.558594 145.007812 164.367188 144.578125 C 170.472656 141.34375 176.992188 139.597656 183.867188 139.113281 C 188.6875 138.769531 193.28125 139.804688 197.796875 141.34375 C 198.445312 141.566406 199.0625 141.882812 199.675781 142.191406 C 200.148438 142.425781 200.421875 142.808594 200.378906 143.371094 C 200.285156 144.644531 199.628906 145.1875 198.378906 145.015625 C 198.292969 145.003906 198.210938 144.976562 198.125 144.964844 C 195.914062 144.605469 193.738281 144.070312 191.519531 143.773438 C 189.640625 143.523438 187.753906 143.3125 185.855469 143.40625 C 184.308594 143.480469 182.765625 143.644531 181.230469 143.871094 C 179.070312 144.1875 176.929688 144.574219 174.902344 145.433594 C 172.148438 146.597656 169.480469 147.933594 166.894531 149.429688 C 166.699219 149.546875 166.507812 149.675781 166.316406 149.804688 C 166.164062 149.90625 166.125 150.046875 166.128906 150.242188 C 166.175781 152.816406 166.847656 155.226562 167.957031 157.53125 C 168.988281 159.679688 170.476562 161.410156 172.480469 162.71875 C 176.726562 165.492188 181.386719 166.636719 186.410156 166.230469 C 190.695312 165.882812 194.738281 164.652344 198.515625 162.570312 C 201.972656 160.664062 205.183594 158.410156 208.222656 155.894531 C 210.992188 153.605469 213.902344 151.507812 216.867188 149.480469 C 217.519531 149.03125 218.210938 148.632812 218.863281 148.222656 Z M 145.28125 163.003906 C 146.34375 163.535156 147.316406 164.027344 148.15625 164.730469 C 148.421875 164.953125 148.605469 164.890625 148.78125 164.617188 C 149.296875 163.824219 149.828125 163.039062 150.34375 162.246094 C 151.289062 160.796875 152.375 159.464844 153.640625 158.285156 C 155.65625 156.40625 157.773438 154.640625 159.949219 152.953125 C 161.648438 151.636719 163.296875 150.246094 165.085938 149.046875 C 167.238281 147.609375 169.550781 146.460938 171.882812 145.355469 C 173.90625 144.394531 175.957031 143.503906 178.171875 143.070312 C 179.578125 142.792969 181 142.609375 182.417969 142.410156 C 185.683594 141.949219 188.9375 142.042969 192.183594 142.558594 C 194.082031 142.859375 195.964844 143.234375 197.84375 143.621094 C 198.097656 143.671875 198.355469 143.675781 198.613281 143.6875 C 198.769531 143.695312 198.90625 143.601562 198.953125 143.464844 C 199.011719 143.296875 198.863281 143.222656 198.730469 143.160156 C 198.523438 143.0625 198.316406 142.957031 198.109375 142.863281 C 196.820312 142.285156 195.460938 141.9375 194.101562 141.578125 C 191.855469 140.976562 189.59375 140.492188 187.253906 140.410156 C 183.121094 140.261719 179.074219 140.800781 175.082031 141.832031 C 169.953125 143.15625 165.144531 145.183594 160.863281 148.351562 C 156.050781 151.917969 151.722656 156.019531 147.546875 160.289062 C 146.746094 161.105469 145.976562 161.957031 145.28125 163.003906 Z M 195.550781 246.125 C 196.097656 245.101562 196.625 244.125 197.078125 243.109375 C 198.308594 240.359375 198.980469 237.457031 199.445312 234.5 C 200.183594 229.785156 200.976562 225.089844 202.117188 220.445312 C 203.871094 213.328125 206.910156 206.839844 211.292969 200.96875 C 213.632812 197.832031 216.484375 195.296875 219.957031 193.472656 C 222 192.402344 224.179688 191.730469 226.480469 192.070312 C 229.660156 192.539062 232.664062 193.535156 235.164062 195.699219 C 235.546875 196.035156 235.746094 196.410156 235.789062 196.917969 C 236.136719 200.820312 236.261719 204.71875 235.660156 208.609375 C 235.34375 210.675781 234.96875 212.734375 234.394531 214.75 C 233.410156 218.226562 231.667969 221.277344 229.195312 223.90625 C 227.644531 225.554688 226.074219 227.179688 224.308594 228.601562 C 222.320312 230.203125 220.09375 231.425781 217.863281 232.644531 C 216.320312 233.488281 214.726562 234.21875 213.0625 234.808594 C 212.328125 235.070312 211.621094 235.402344 210.910156 235.722656 C 210.683594 235.824219 210.445312 235.949219 210.28125 236.125 C 210.007812 236.414062 209.832031 236.792969 209.933594 237.191406 C 210.035156 237.578125 210.433594 237.566406 210.757812 237.644531 C 211.773438 237.894531 212.746094 237.734375 213.714844 237.410156 C 216.769531 236.390625 219.65625 235 222.527344 233.566406 C 228.074219 230.796875 232.523438 226.789062 235.992188 221.671875 C 237.929688 218.808594 239.0625 215.621094 239.828125 212.277344 C 240.664062 208.628906 240.816406 204.925781 240.714844 201.207031 C 240.683594 200.089844 240.632812 198.976562 240.566406 197.863281 C 240.542969 197.503906 240.628906 197.285156 240.996094 197.171875 C 242.96875 196.550781 244.964844 196.257812 247.011719 196.765625 C 248.390625 197.105469 249.503906 197.867188 250.320312 199.035156 C 251.828125 201.179688 252.742188 203.574219 253.054688 206.15625 C 254.175781 215.34375 251.742188 223.488281 245.535156 230.378906 C 240.453125 236.023438 234.171875 239.953125 227.09375 242.636719 C 223.191406 244.113281 219.179688 245.160156 215.027344 245.636719 C 212.222656 245.960938 209.40625 246.082031 206.589844 246.171875 C 203.160156 246.285156 199.726562 246.28125 196.292969 246.269531 C 196.074219 246.265625 195.84375 246.320312 195.550781 246.125 Z M 146.226562 236.144531 C 146 235.882812 145.765625 235.632812 145.546875 235.367188 C 141.132812 229.953125 138.066406 223.835938 136.046875 217.171875 C 135.210938 214.414062 134.84375 211.566406 134.585938 208.703125 C 134.289062 205.441406 134.132812 202.175781 134.339844 198.902344 C 134.386719 198.183594 134.503906 197.472656 134.722656 196.789062 C 134.988281 195.972656 135.589844 195.785156 136.351562 196.179688 C 136.933594 196.484375 137 197.019531 137.042969 197.566406 C 137.230469 199.765625 137.390625 201.972656 137.585938 204.171875 C 137.742188 205.945312 137.824219 207.726562 138.195312 209.472656 C 139.53125 215.789062 141.996094 221.605469 145.917969 226.773438 C 146.941406 228.128906 148.011719 229.4375 149.234375 230.617188 C 149.835938 231.199219 150.066406 231.234375 150.828125 230.832031 C 151.59375 230.433594 152.351562 230.027344 153.113281 229.625 C 153.699219 229.3125 154.226562 228.921875 154.707031 228.464844 C 157.246094 226.066406 158.742188 223.160156 159.152344 219.667969 C 159.503906 216.652344 159.414062 213.660156 158.988281 210.660156 C 158.03125 203.828125 155.136719 198.0625 149.882812 193.492188 C 146.675781 190.703125 143.464844 187.925781 140.199219 185.207031 C 138.402344 183.710938 136.820312 182.015625 135.601562 180.003906 C 135.511719 179.851562 135.464844 179.628906 135.183594 179.609375 C 134.585938 180.722656 134.015625 181.847656 133.386719 182.941406 C 131.519531 186.203125 129.59375 189.429688 127.875 192.777344 C 125.90625 196.613281 124.117188 200.515625 123.027344 204.710938 C 122.121094 208.191406 121.363281 211.691406 121.253906 215.300781 C 121.078125 220.933594 122.644531 226.125 125.347656 231.011719 C 126.453125 233.007812 127.8125 234.816406 129.492188 236.371094 C 131.148438 237.898438 133.019531 239.039062 135.273438 239.417969 C 137.765625 239.84375 140.253906 239.761719 142.707031 239.140625 C 144.253906 238.753906 145.59375 237.933594 146.867188 236.894531 C 146.628906 236.613281 146.429688 236.375 146.226562 236.144531 Z M 218.527344 147.792969 C 216.125 145.871094 213.914062 143.734375 211.667969 141.640625 C 208.316406 138.519531 204.796875 135.613281 200.796875 133.363281 C 196.191406 130.777344 191.332031 128.972656 185.96875 128.800781 C 179.398438 128.589844 173.574219 130.511719 168.617188 134.875 C 166.8125 136.457031 165.261719 138.261719 164.238281 140.464844 C 163.726562 141.566406 163.375 142.71875 163.355469 143.941406 C 163.34375 144.894531 163.558594 145.007812 164.367188 144.578125 C 170.472656 141.34375 176.992188 139.597656 183.867188 139.113281 C 188.6875 138.769531 193.28125 139.804688 197.796875 141.34375 C 198.445312 141.566406 199.0625 141.882812 199.675781 142.191406 C 200.148438 142.425781 200.421875 142.808594 200.378906 143.371094 C 200.285156 144.644531 199.628906 145.1875 198.378906 145.015625 C 198.292969 145.003906 198.210938 144.976562 198.125 144.964844 C 195.914062 144.605469 193.738281 144.070312 191.519531 143.773438 C 189.640625 143.523438 187.753906 143.3125 185.855469 143.40625 C 184.308594 143.480469 182.765625 143.644531 181.230469 143.871094 C 179.070312 144.1875 176.929688 144.574219 174.902344 145.433594 C 172.148438 146.597656 169.480469 147.933594 166.894531 149.429688 C 166.699219 149.546875 166.507812 149.675781 166.316406 149.804688 C 166.164062 149.90625 166.125 150.046875 166.128906 150.242188 C 166.175781 152.816406 166.847656 155.226562 167.957031 157.53125 C 168.988281 159.679688 170.476562 161.410156 172.480469 162.71875 C 176.726562 165.492188 181.386719 166.636719 186.410156 166.230469 C 190.695312 165.882812 194.738281 164.652344 198.515625 162.570312 C 201.972656 160.664062 205.183594 158.410156 208.222656 155.894531 C 210.992188 153.605469 213.902344 151.507812 216.867188 149.480469 C 217.519531 149.03125 218.210938 148.632812 218.863281 148.222656 C 218.828125 147.96875 218.652344 147.894531 218.527344 147.792969 Z M 211.867188 236.65625 C 212.292969 236.28125 212.675781 236.175781 213.035156 236.050781 C 216.628906 234.820312 219.941406 233.023438 223.0625 230.90625 C 227.171875 228.121094 230.617188 224.628906 233.246094 220.402344 C 234.640625 218.15625 235.421875 215.648438 236.015625 213.078125 C 237.050781 208.613281 237.398438 204.097656 237.160156 199.527344 C 236.703125 190.847656 234.292969 182.796875 229.460938 175.523438 C 228.175781 173.589844 226.773438 171.746094 225 170.222656 C 224.917969 170.152344 224.824219 170.082031 224.820312 169.886719 C 225.257812 169.558594 225.820312 169.402344 226.363281 169.226562 C 227.054688 169.003906 227.75 168.792969 228.402344 168.476562 C 228.816406 168.273438 229.027344 168.386719 229.300781 168.71875 C 231.421875 171.304688 233.167969 174.121094 234.503906 177.179688 C 236.804688 182.453125 238.355469 187.929688 239.007812 193.664062 C 239.375 196.910156 239.613281 200.164062 239.601562 203.429688 C 239.582031 207.925781 238.960938 212.320312 237.34375 216.550781 C 236.136719 219.703125 234.246094 222.410156 232.011719 224.898438 C 229.089844 228.152344 225.667969 230.75 221.734375 232.683594 C 219.175781 233.9375 216.597656 235.136719 213.9375 236.148438 C 213.316406 236.382812 212.699219 236.652344 211.867188 236.65625 Z M 135.554688 200.429688 C 135.503906 203.128906 135.632812 205.820312 135.875 208.511719 C 136.117188 211.199219 136.464844 213.871094 137.203125 216.472656 C 138.746094 221.933594 141.195312 226.972656 144.363281 231.671875 C 145.695312 233.652344 147.195312 235.511719 148.976562 237.105469 C 152.953125 240.671875 157.570312 243.101562 162.652344 244.671875 C 166.230469 245.777344 169.921875 246.308594 173.632812 246.675781 C 175.054688 246.816406 174.871094 246.859375 174.96875 245.519531 C 174.996094 245.175781 175.054688 244.835938 175.074219 244.492188 C 175.097656 244.070312 175.21875 243.644531 175.070312 243.210938 C 173.691406 243.386719 172.351562 243.253906 171.035156 242.964844 C 166.191406 241.894531 161.5625 240.230469 157.207031 237.84375 C 153.636719 235.890625 150.328125 233.578125 147.46875 230.667969 C 145.613281 228.773438 144.15625 226.5625 142.675781 224.375 C 141.265625 222.289062 140.308594 219.980469 139.339844 217.683594 C 137.957031 214.390625 136.945312 210.980469 136.574219 207.414062 C 136.265625 204.449219 136.054688 201.472656 135.792969 198.390625 C 135.550781 199.121094 135.566406 199.777344 135.554688 200.429688 Z M 148.15625 164.730469 C 148.421875 164.953125 148.605469 164.890625 148.78125 164.617188 C 149.296875 163.824219 149.828125 163.039062 150.34375 162.246094 C 151.289062 160.796875 152.375 159.464844 153.640625 158.285156 C 155.65625 156.40625 157.773438 154.640625 159.949219 152.953125 C 161.648438 151.636719 163.296875 150.246094 165.085938 149.046875 C 167.238281 147.609375 169.550781 146.460938 171.882812 145.355469 C 173.90625 144.394531 175.957031 143.503906 178.171875 143.070312 C 179.578125 142.792969 181 142.609375 182.417969 142.410156 C 185.683594 141.949219 188.9375 142.042969 192.183594 142.558594 C 194.082031 142.859375 195.964844 143.234375 197.84375 143.621094 C 198.097656 143.671875 198.355469 143.675781 198.613281 143.6875 C 198.769531 143.695312 198.90625 143.601562 198.953125 143.464844 C 199.011719 143.296875 198.863281 143.222656 198.730469 143.160156 C 198.523438 143.0625 198.316406 142.957031 198.109375 142.863281 C 196.820312 142.285156 195.460938 141.9375 194.101562 141.578125 C 191.855469 140.976562 189.59375 140.492188 187.253906 140.410156 C 183.121094 140.261719 179.074219 140.800781 175.082031 141.832031 C 169.953125 143.15625 165.144531 145.183594 160.863281 148.351562 C 156.050781 151.917969 151.722656 156.019531 147.546875 160.289062 C 146.746094 161.105469 145.976562 161.957031 145.28125 163.003906 C 146.34375 163.535156 147.316406 164.027344 148.15625 164.730469 Z M 148.15625 164.730469 " fill-opacity="1" fill-rule="nonzero"/><path fill="#090907" d="M 235.339844 194.261719 C 235.195312 192.601562 234.914062 190.984375 234.472656 189.402344 C 232.855469 183.625 230.351562 178.28125 226.597656 173.558594 C 225.882812 172.660156 225.078125 171.847656 224.234375 171.078125 C 224.027344 170.890625 223.8125 170.707031 223.636719 170.492188 C 223.175781 169.929688 223.265625 169.402344 223.898438 169.03125 C 224.574219 168.632812 225.320312 168.390625 226.0625 168.152344 C 226.644531 167.964844 227.230469 167.78125 227.808594 167.574219 C 228.058594 167.484375 228.289062 167.382812 228.464844 167.109375 C 228.757812 166.652344 229.480469 166.660156 229.699219 167.148438 C 230.140625 168.144531 230.925781 168.871094 231.539062 169.722656 C 234.292969 173.542969 236.199219 177.761719 237.660156 182.214844 C 239.074219 186.53125 239.953125 190.945312 240.363281 195.464844 C 240.382812 195.710938 240.359375 195.96875 240.550781 196.230469 C 241.542969 195.933594 242.554688 195.632812 243.601562 195.503906 C 245.742188 195.242188 247.78125 195.46875 249.601562 196.742188 C 250.34375 197.261719 250.9375 197.921875 251.433594 198.675781 C 252.972656 200.996094 253.894531 203.558594 254.214844 206.308594 C 255.113281 214.09375 253.453125 221.285156 249.03125 227.785156 C 246.359375 231.710938 242.890625 234.84375 239.035156 237.574219 C 232.742188 242.027344 225.765625 244.839844 218.21875 246.292969 C 215.5 246.8125 212.742188 247.003906 209.984375 247.15625 C 204.964844 247.433594 199.941406 247.367188 194.917969 247.402344 C 194.578125 247.402344 194.234375 247.421875 194.027344 247.074219 C 193.804688 246.695312 194 246.375 194.203125 246.070312 C 196.503906 242.601562 197.648438 238.71875 198.285156 234.660156 C 199.128906 229.261719 200.035156 223.875 201.457031 218.585938 C 203.378906 211.449219 206.667969 205.015625 211.238281 199.238281 C 213.550781 196.3125 216.40625 194.011719 219.75 192.328125 C 221.492188 191.449219 223.335938 190.960938 225.289062 190.882812 C 227.199219 190.804688 228.980469 191.371094 230.746094 191.988281 C 232.351562 192.550781 233.902344 193.234375 235.339844 194.261719 Z M 195.550781 246.125 C 195.84375 246.320312 196.074219 246.265625 196.292969 246.269531 C 199.726562 246.28125 203.160156 246.285156 206.589844 246.171875 C 209.40625 246.082031 212.222656 245.960938 215.027344 245.636719 C 219.179688 245.160156 223.191406 244.113281 227.09375 242.636719 C 234.171875 239.953125 240.453125 236.023438 245.535156 230.378906 C 251.742188 223.488281 254.175781 215.34375 253.054688 206.15625 C 252.742188 203.574219 251.828125 201.179688 250.320312 199.035156 C 249.503906 197.867188 248.390625 197.105469 247.011719 196.765625 C 244.964844 196.257812 242.96875 196.550781 240.996094 197.171875 C 240.628906 197.285156 240.542969 197.503906 240.566406 197.863281 C 240.632812 198.976562 240.683594 200.089844 240.714844 201.207031 C 240.816406 204.925781 240.664062 208.628906 239.828125 212.277344 C 239.0625 215.621094 237.929688 218.808594 235.992188 221.671875 C 232.523438 226.789062 228.074219 230.796875 222.527344 233.566406 C 219.65625 235 216.769531 236.390625 213.714844 237.410156 C 212.746094 237.734375 211.773438 237.894531 210.757812 237.644531 C 210.433594 237.566406 210.035156 237.578125 209.933594 237.191406 C 209.832031 236.792969 210.007812 236.414062 210.28125 236.125 C 210.445312 235.949219 210.683594 235.824219 210.910156 235.722656 C 211.621094 235.402344 212.328125 235.070312 213.0625 234.808594 C 214.726562 234.21875 216.320312 233.488281 217.863281 232.644531 C 220.09375 231.425781 222.320312 230.203125 224.308594 228.601562 C 226.074219 227.179688 227.644531 225.554688 229.195312 223.90625 C 231.667969 221.277344 233.410156 218.226562 234.394531 214.75 C 234.96875 212.734375 235.34375 210.675781 235.660156 208.609375 C 236.261719 204.71875 236.136719 200.820312 235.789062 196.917969 C 235.746094 196.410156 235.546875 196.035156 235.164062 195.699219 C 232.664062 193.535156 229.660156 192.539062 226.480469 192.070312 C 224.179688 191.730469 222 192.402344 219.957031 193.472656 C 216.484375 195.296875 213.632812 197.832031 211.292969 200.96875 C 206.910156 206.839844 203.871094 213.328125 202.117188 220.445312 C 200.976562 225.089844 200.183594 229.785156 199.445312 234.5 C 198.980469 237.457031 198.308594 240.359375 197.078125 243.109375 C 196.625 244.125 196.097656 245.101562 195.550781 246.125 Z M 211.867188 236.65625 C 212.699219 236.652344 213.316406 236.382812 213.9375 236.148438 C 216.597656 235.136719 219.175781 233.9375 221.734375 232.683594 C 225.667969 230.75 229.089844 228.152344 232.011719 224.898438 C 234.246094 222.410156 236.136719 219.703125 237.34375 216.550781 C 238.960938 212.320312 239.582031 207.925781 239.601562 203.429688 C 239.613281 200.164062 239.375 196.910156 239.007812 193.664062 C 238.355469 187.929688 236.804688 182.453125 234.503906 177.179688 C 233.167969 174.121094 231.421875 171.304688 229.300781 168.71875 C 229.027344 168.386719 228.816406 168.273438 228.402344 168.476562 C 227.75 168.792969 227.054688 169.003906 226.363281 169.226562 C 225.820312 169.402344 225.257812 169.558594 224.820312 169.886719 C 224.824219 170.082031 224.917969 170.152344 225 170.222656 C 226.773438 171.746094 228.175781 173.589844 229.460938 175.523438 C 234.292969 182.796875 236.703125 190.847656 237.160156 199.527344 C 237.398438 204.097656 237.050781 208.613281 236.015625 213.078125 C 235.421875 215.648438 234.640625 218.15625 233.246094 220.402344 C 230.617188 224.628906 227.171875 228.121094 223.0625 230.90625 C 219.941406 233.023438 216.628906 234.820312 213.035156 236.050781 C 212.675781 236.175781 212.292969 236.28125 211.867188 236.65625 Z M 151.140625 232.140625 C 151.269531 232.4375 151.546875 232.554688 151.765625 232.726562 C 157.179688 236.976562 163.316406 239.707031 169.953125 241.386719 C 171.664062 241.820312 173.375 242.082031 175.148438 241.917969 C 176.109375 241.832031 176.484375 242.226562 176.40625 243.1875 C 176.300781 244.476562 176.140625 245.757812 176.003906 247.042969 C 175.960938 247.441406 175.738281 247.5625 175.34375 247.671875 C 173.824219 248.097656 172.332031 247.753906 170.839844 247.597656 C 166.890625 247.179688 163.03125 246.363281 159.324219 244.878906 C 155.214844 243.234375 151.433594 241.054688 148.140625 238.078125 C 147.816406 237.785156 147.613281 237.773438 147.277344 238.039062 C 145.914062 239.109375 144.449219 240.011719 142.738281 240.414062 C 139.902344 241.078125 137.046875 241.132812 134.207031 240.472656 C 132.183594 240 130.453125 238.917969 128.917969 237.539062 C 126.058594 234.980469 124.089844 231.804688 122.609375 228.304688 C 121.289062 225.199219 120.359375 221.984375 120.082031 218.605469 C 119.867188 215.933594 120.03125 213.273438 120.445312 210.625 C 121.507812 203.832031 123.855469 197.492188 127.132812 191.472656 C 128.3125 189.308594 129.464844 187.125 130.738281 185.015625 C 131.941406 183.023438 133.042969 180.976562 134.113281 178.917969 C 134.191406 178.765625 134.261719 178.605469 134.347656 178.457031 C 134.875 177.507812 135.515625 177.453125 136.0625 178.414062 C 137.816406 181.5 140.382812 183.808594 143.097656 186.003906 C 146.113281 188.441406 149.019531 191.003906 151.855469 193.644531 C 156.335938 197.8125 158.875 203.003906 159.980469 208.953125 C 160.445312 211.4375 160.738281 213.949219 160.65625 216.484375 C 160.578125 218.898438 160.386719 221.316406 159.496094 223.585938 C 158.207031 226.863281 156.15625 229.511719 152.929688 231.128906 C 152.320312 231.433594 151.695312 231.730469 151.140625 232.140625 Z M 146.867188 236.894531 C 146.628906 236.613281 146.429688 236.375 146.226562 236.144531 C 146 235.882812 145.765625 235.632812 145.546875 235.367188 C 141.132812 229.953125 138.066406 223.835938 136.046875 217.171875 C 135.210938 214.414062 134.84375 211.566406 134.585938 208.703125 C 134.289062 205.441406 134.132812 202.175781 134.339844 198.902344 C 134.386719 198.183594 134.503906 197.472656 134.722656 196.789062 C 134.988281 195.972656 135.589844 195.785156 136.351562 196.179688 C 136.933594 196.484375 137 197.019531 137.042969 197.566406 C 137.230469 199.765625 137.390625 201.972656 137.585938 204.171875 C 137.742188 205.945312 137.824219 207.726562 138.195312 209.472656 C 139.53125 215.789062 141.996094 221.605469 145.917969 226.773438 C 146.941406 228.128906 148.011719 229.4375 149.234375 230.617188 C 149.835938 231.199219 150.066406 231.234375 150.828125 230.832031 C 151.59375 230.433594 152.351562 230.027344 153.113281 229.625 C 153.699219 229.3125 154.226562 228.921875 154.707031 228.464844 C 157.246094 226.066406 158.742188 223.160156 159.152344 219.667969 C 159.503906 216.652344 159.414062 213.660156 158.988281 210.660156 C 158.03125 203.828125 155.136719 198.0625 149.882812 193.492188 C 146.675781 190.703125 143.464844 187.925781 140.199219 185.207031 C 138.402344 183.710938 136.820312 182.015625 135.601562 180.003906 C 135.511719 179.851562 135.464844 179.628906 135.183594 179.609375 C 134.585938 180.722656 134.015625 181.847656 133.386719 182.941406 C 131.519531 186.203125 129.59375 189.429688 127.875 192.777344 C 125.90625 196.613281 124.117188 200.515625 123.027344 204.710938 C 122.121094 208.191406 121.363281 211.691406 121.253906 215.300781 C 121.078125 220.933594 122.644531 226.125 125.347656 231.011719 C 126.453125 233.007812 127.8125 234.816406 129.492188 236.371094 C 131.148438 237.898438 133.019531 239.039062 135.273438 239.417969 C 137.765625 239.84375 140.253906 239.761719 142.707031 239.140625 C 144.253906 238.753906 145.59375 237.933594 146.867188 236.894531 Z M 135.792969 198.390625 C 135.550781 199.121094 135.566406 199.777344 135.554688 200.429688 C 135.503906 203.128906 135.632812 205.820312 135.875 208.511719 C 136.117188 211.199219 136.464844 213.871094 137.203125 216.472656 C 138.746094 221.933594 141.195312 226.972656 144.363281 231.671875 C 145.695312 233.652344 147.195312 235.511719 148.976562 237.105469 C 152.953125 240.671875 157.570312 243.101562 162.652344 244.671875 C 166.230469 245.777344 169.921875 246.308594 173.632812 246.675781 C 175.054688 246.816406 174.871094 246.859375 174.96875 245.519531 C 174.996094 245.175781 175.054688 244.835938 175.074219 244.492188 C 175.097656 244.070312 175.21875 243.644531 175.070312 243.210938 C 173.691406 243.386719 172.351562 243.253906 171.035156 242.964844 C 166.191406 241.894531 161.5625 240.230469 157.207031 237.84375 C 153.636719 235.890625 150.328125 233.578125 147.46875 230.667969 C 145.613281 228.773438 144.15625 226.5625 142.675781 224.375 C 141.265625 222.289062 140.308594 219.980469 139.339844 217.683594 C 137.957031 214.390625 136.945312 210.980469 136.574219 207.414062 C 136.265625 204.449219 136.054688 201.472656 135.792969 198.390625 Z M 164.828125 150.914062 C 164.722656 150.898438 164.628906 150.957031 164.539062 151.027344 C 161.15625 153.644531 157.742188 156.222656 154.613281 159.148438 C 153.371094 160.3125 152.292969 161.613281 151.367188 163.039062 C 150.804688 163.90625 150.238281 164.769531 149.628906 165.605469 C 148.972656 166.503906 148.476562 166.5625 147.625 165.875 C 146.679688 165.117188 145.691406 164.445312 144.546875 164.019531 C 144.082031 163.847656 143.910156 163.015625 144.207031 162.460938 C 144.300781 162.285156 144.4375 162.132812 144.558594 161.96875 C 146.382812 159.519531 148.523438 157.359375 150.757812 155.289062 C 153.730469 152.542969 156.675781 149.761719 159.976562 147.402344 C 160.722656 146.867188 161.484375 146.351562 162.253906 145.851562 C 162.550781 145.664062 162.617188 145.519531 162.449219 145.175781 C 162.035156 144.335938 162.160156 143.4375 162.3125 142.554688 C 162.761719 139.949219 164.097656 137.796875 165.839844 135.875 C 169.886719 131.414062 174.90625 128.757812 180.851562 127.824219 C 186.523438 126.933594 191.917969 127.957031 197.15625 130.15625 C 201.542969 131.992188 205.40625 134.644531 209.050781 137.648438 C 210.777344 139.074219 212.410156 140.609375 214.042969 142.140625 C 215.90625 143.890625 217.800781 145.601562 219.789062 147.210938 C 219.964844 147.355469 220.148438 147.496094 220.304688 147.664062 C 220.742188 148.144531 220.691406 148.585938 220.171875 148.980469 C 220.101562 149.03125 220.023438 149.066406 219.949219 149.109375 C 215.910156 151.394531 212.273438 154.242188 208.679688 157.144531 C 206.132812 159.207031 203.476562 161.105469 200.667969 162.796875 C 196.53125 165.289062 192.09375 166.910156 187.28125 167.410156 C 181.40625 168.023438 175.996094 166.75 171.136719 163.3125 C 168.90625 161.734375 167.417969 159.597656 166.390625 157.109375 C 165.613281 155.222656 164.949219 153.296875 164.964844 151.210938 C 164.96875 151.101562 164.972656 150.976562 164.828125 150.914062 Z M 218.863281 148.222656 C 218.828125 147.96875 218.652344 147.894531 218.527344 147.792969 C 216.125 145.871094 213.914062 143.734375 211.667969 141.640625 C 208.316406 138.519531 204.796875 135.613281 200.796875 133.363281 C 196.191406 130.777344 191.332031 128.972656 185.96875 128.800781 C 179.398438 128.589844 173.574219 130.511719 168.617188 134.875 C 166.8125 136.457031 165.261719 138.261719 164.238281 140.464844 C 163.726562 141.566406 163.375 142.71875 163.355469 143.941406 C 163.34375 144.894531 163.558594 145.007812 164.367188 144.578125 C 170.472656 141.34375 176.992188 139.597656 183.867188 139.113281 C 188.6875 138.769531 193.28125 139.804688 197.796875 141.34375 C 198.445312 141.566406 199.0625 141.882812 199.675781 142.191406 C 200.148438 142.425781 200.421875 142.808594 200.378906 143.371094 C 200.285156 144.644531 199.628906 145.1875 198.378906 145.015625 C 198.292969 145.003906 198.210938 144.976562 198.125 144.964844 C 195.914062 144.605469 193.738281 144.070312 191.519531 143.773438 C 189.640625 143.523438 187.753906 143.3125 185.855469 143.40625 C 184.308594 143.480469 182.765625 143.644531 181.230469 143.871094 C 179.070312 144.1875 176.929688 144.574219 174.902344 145.433594 C 172.148438 146.597656 169.480469 147.933594 166.894531 149.429688 C 166.699219 149.546875 166.507812 149.675781 166.316406 149.804688 C 166.164062 149.90625 166.125 150.046875 166.128906 150.242188 C 166.175781 152.816406 166.847656 155.226562 167.957031 157.53125 C 168.988281 159.679688 170.476562 161.410156 172.480469 162.71875 C 176.726562 165.492188 181.386719 166.636719 186.410156 166.230469 C 190.695312 165.882812 194.738281 164.652344 198.515625 162.570312 C 201.972656 160.664062 205.183594 158.410156 208.222656 155.894531 C 210.992188 153.605469 213.902344 151.507812 216.867188 149.480469 C 217.519531 149.03125 218.210938 148.632812 218.863281 148.222656 Z M 145.28125 163.003906 C 146.34375 163.535156 147.316406 164.027344 148.15625 164.730469 C 148.421875 164.953125 148.605469 164.890625 148.78125 164.617188 C 149.296875 163.824219 149.828125 163.039062 150.34375 162.246094 C 151.289062 160.796875 152.375 159.464844 153.640625 158.285156 C 155.65625 156.40625 157.773438 154.640625 159.949219 152.953125 C 161.648438 151.636719 163.296875 150.246094 165.085938 149.046875 C 167.238281 147.609375 169.550781 146.460938 171.882812 145.355469 C 173.90625 144.394531 175.957031 143.503906 178.171875 143.070312 C 179.578125 142.792969 181 142.609375 182.417969 142.410156 C 185.683594 141.949219 188.9375 142.042969 192.183594 142.558594 C 194.082031 142.859375 195.964844 143.234375 197.84375 143.621094 C 198.097656 143.671875 198.355469 143.675781 198.613281 143.6875 C 198.769531 143.695312 198.90625 143.601562 198.953125 143.464844 C 199.011719 143.296875 198.863281 143.222656 198.730469 143.160156 C 198.523438 143.0625 198.316406 142.957031 198.109375 142.863281 C 196.820312 142.285156 195.460938 141.9375 194.101562 141.578125 C 191.855469 140.976562 189.59375 140.492188 187.253906 140.410156 C 183.121094 140.261719 179.074219 140.800781 175.082031 141.832031 C 169.953125 143.15625 165.144531 145.183594 160.863281 148.351562 C 156.050781 151.917969 151.722656 156.019531 147.546875 160.289062 C 146.746094 161.105469 145.976562 161.957031 145.28125 163.003906 Z M 145.28125 163.003906 " fill-opacity="1" fill-rule="nonzero"/></g><path fill="#87c75c" d="M 195.550781 246.125 C 196.097656 245.101562 196.625 244.125 197.078125 243.109375 C 198.308594 240.359375 198.980469 237.457031 199.445312 234.5 C 200.183594 229.785156 200.976562 225.089844 202.117188 220.445312 C 203.871094 213.328125 206.910156 206.839844 211.292969 200.96875 C 213.632812 197.832031 216.484375 195.296875 219.957031 193.472656 C 222 192.402344 224.179688 191.730469 226.480469 192.070312 C 229.660156 192.539062 232.664062 193.535156 235.164062 195.699219 C 235.546875 196.035156 235.746094 196.410156 235.789062 196.917969 C 236.136719 200.820312 236.261719 204.71875 235.660156 208.609375 C 235.34375 210.675781 234.96875 212.734375 234.394531 214.75 C 233.410156 218.226562 231.667969 221.277344 229.195312 223.90625 C 227.644531 225.554688 226.074219 227.179688 224.308594 228.601562 C 222.320312 230.203125 220.09375 231.425781 217.863281 232.644531 C 216.320312 233.488281 214.726562 234.21875 213.0625 234.808594 C 212.328125 235.070312 211.621094 235.402344 210.910156 235.722656 C 210.683594 235.824219 210.445312 235.949219 210.28125 236.125 C 210.007812 236.414062 209.832031 236.792969 209.933594 237.191406 C 210.035156 237.578125 210.433594 237.566406 210.757812 237.644531 C 211.773438 237.894531 212.746094 237.734375 213.714844 237.410156 C 216.769531 236.390625 219.65625 235 222.527344 233.566406 C 228.074219 230.796875 232.523438 226.789062 235.992188 221.671875 C 237.929688 218.808594 239.0625 215.621094 239.828125 212.277344 C 240.664062 208.628906 240.816406 204.925781 240.714844 201.207031 C 240.683594 200.089844 240.632812 198.976562 240.566406 197.863281 C 240.542969 197.503906 240.628906 197.285156 240.996094 197.171875 C 242.96875 196.550781 244.964844 196.257812 247.011719 196.765625 C 248.390625 197.105469 249.503906 197.867188 250.320312 199.035156 C 251.828125 201.179688 252.742188 203.574219 253.054688 206.15625 C 254.175781 215.34375 251.742188 223.488281 245.535156 230.378906 C 240.453125 236.023438 234.171875 239.953125 227.09375 242.636719 C 223.191406 244.113281 219.179688 245.160156 215.027344 245.636719 C 212.222656 245.960938 209.40625 246.082031 206.589844 246.171875 C 203.160156 246.285156 199.726562 246.28125 196.292969 246.269531 C 196.074219 246.265625 195.84375 246.320312 195.550781 246.125 Z M 146.226562 236.144531 C 146 235.882812 145.765625 235.632812 145.546875 235.367188 C 141.132812 229.953125 138.066406 223.835938 136.046875 217.171875 C 135.210938 214.414062 134.84375 211.566406 134.585938 208.703125 C 134.289062 205.441406 134.132812 202.175781 134.339844 198.902344 C 134.386719 198.183594 134.503906 197.472656 134.722656 196.789062 C 134.988281 195.972656 135.589844 195.785156 136.351562 196.179688 C 136.933594 196.484375 137 197.019531 137.042969 197.566406 C 137.230469 199.765625 137.390625 201.972656 137.585938 204.171875 C 137.742188 205.945312 137.824219 207.726562 138.195312 209.472656 C 139.53125 215.789062 141.996094 221.605469 145.917969 226.773438 C 146.941406 228.128906 148.011719 229.4375 149.234375 230.617188 C 149.835938 231.199219 150.066406 231.234375 150.828125 230.832031 C 151.59375 230.433594 152.351562 230.027344 153.113281 229.625 C 153.699219 229.3125 154.226562 228.921875 154.707031 228.464844 C 157.246094 226.066406 158.742188 223.160156 159.152344 219.667969 C 159.503906 216.652344 159.414062 213.660156 158.988281 210.660156 C 158.03125 203.828125 155.136719 198.0625 149.882812 193.492188 C 146.675781 190.703125 143.464844 187.925781 140.199219 185.207031 C 138.402344 183.710938 136.820312 182.015625 135.601562 180.003906 C 135.511719 179.851562 135.464844 179.628906 135.183594 179.609375 C 134.585938 180.722656 134.015625 181.847656 133.386719 182.941406 C 131.519531 186.203125 129.59375 189.429688 127.875 192.777344 C 125.90625 196.613281 124.117188 200.515625 123.027344 204.710938 C 122.121094 208.191406 121.363281 211.691406 121.253906 215.300781 C 121.078125 220.933594 122.644531 226.125 125.347656 231.011719 C 126.453125 233.007812 127.8125 234.816406 129.492188 236.371094 C 131.148438 237.898438 133.019531 239.039062 135.273438 239.417969 C 137.765625 239.84375 140.253906 239.761719 142.707031 239.140625 C 144.253906 238.753906 145.59375 237.933594 146.867188 236.894531 C 146.628906 236.613281 146.429688 236.375 146.226562 236.144531 Z M 218.527344 147.792969 C 216.125 145.871094 213.914062 143.734375 211.667969 141.640625 C 208.316406 138.519531 204.796875 135.613281 200.796875 133.363281 C 196.191406 130.777344 191.332031 128.972656 185.96875 128.800781 C 179.398438 128.589844 173.574219 130.511719 168.617188 134.875 C 166.8125 136.457031 165.261719 138.261719 164.238281 140.464844 C 163.726562 141.566406 163.375 142.71875 163.355469 143.941406 C 163.34375 144.894531 163.558594 145.007812 164.367188 144.578125 C 170.472656 141.34375 176.992188 139.597656 183.867188 139.113281 C 188.6875 138.769531 193.28125 139.804688 197.796875 141.34375 C 198.445312 141.566406 199.0625 141.882812 199.675781 142.191406 C 200.148438 142.425781 200.421875 142.808594 200.378906 143.371094 C 200.285156 144.644531 199.628906 145.1875 198.378906 145.015625 C 198.292969 145.003906 198.210938 144.976562 198.125 144.964844 C 195.914062 144.605469 193.738281 144.070312 191.519531 143.773438 C 189.640625 143.523438 187.753906 143.3125 185.855469 143.40625 C 184.308594 143.480469 182.765625 143.644531 181.230469 143.871094 C 179.070312 144.1875 176.929688 144.574219 174.902344 145.433594 C 172.148438 146.597656 169.480469 147.933594 166.894531 149.429688 C 166.699219 149.546875 166.507812 149.675781 166.316406 149.804688 C 166.164062 149.90625 166.125 150.046875 166.128906 150.242188 C 166.175781 152.816406 166.847656 155.226562 167.957031 157.53125 C 168.988281 159.679688 170.476562 161.410156 172.480469 162.71875 C 176.726562 165.492188 181.386719 166.636719 186.410156 166.230469 C 190.695312 165.882812 194.738281 164.652344 198.515625 162.570312 C 201.972656 160.664062 205.183594 158.410156 208.222656 155.894531 C 210.992188 153.605469 213.902344 151.507812 216.867188 149.480469 C 217.519531 149.03125 218.210938 148.632812 218.863281 148.222656 C 218.828125 147.96875 218.652344 147.894531 218.527344 147.792969 Z M 218.527344 147.792969 " fill-opacity="1" fill-rule="nonzero"/><path fill="#414b3b" d="M 211.867188 236.65625 C 212.292969 236.28125 212.675781 236.175781 213.035156 236.050781 C 216.628906 234.820312 219.941406 233.023438 223.0625 230.90625 C 227.171875 228.121094 230.617188 224.628906 233.246094 220.402344 C 234.640625 218.15625 235.421875 215.648438 236.015625 213.078125 C 237.050781 208.613281 237.398438 204.097656 237.160156 199.527344 C 236.703125 190.847656 234.292969 182.796875 229.460938 175.523438 C 228.175781 173.589844 226.773438 171.746094 225 170.222656 C 224.917969 170.152344 224.824219 170.082031 224.820312 169.886719 C 225.257812 169.558594 225.820312 169.402344 226.363281 169.226562 C 227.054688 169.003906 227.75 168.792969 228.402344 168.476562 C 228.816406 168.273438 229.027344 168.386719 229.300781 168.71875 C 231.421875 171.304688 233.167969 174.121094 234.503906 177.179688 C 236.804688 182.453125 238.355469 187.929688 239.007812 193.664062 C 239.375 196.910156 239.613281 200.164062 239.601562 203.429688 C 239.582031 207.925781 238.960938 212.320312 237.34375 216.550781 C 236.136719 219.703125 234.246094 222.410156 232.011719 224.898438 C 229.089844 228.152344 225.667969 230.75 221.734375 232.683594 C 219.175781 233.9375 216.597656 235.136719 213.9375 236.148438 C 213.316406 236.382812 212.699219 236.652344 211.867188 236.65625 Z M 135.554688 200.429688 C 135.503906 203.128906 135.632812 205.820312 135.875 208.511719 C 136.117188 211.199219 136.464844 213.871094 137.203125 216.472656 C 138.746094 221.933594 141.195312 226.972656 144.363281 231.671875 C 145.695312 233.652344 147.195312 235.511719 148.976562 237.105469 C 152.953125 240.671875 157.570312 243.101562 162.652344 244.671875 C 166.230469 245.777344 169.921875 246.308594 173.632812 246.675781 C 175.054688 246.816406 174.871094 246.859375 174.96875 245.519531 C 174.996094 245.175781 175.054688 244.835938 175.074219 244.492188 C 175.097656 244.070312 175.21875 243.644531 175.070312 243.210938 C 173.691406 243.386719 172.351562 243.253906 171.035156 242.964844 C 166.191406 241.894531 161.5625 240.230469 157.207031 237.84375 C 153.636719 235.890625 150.328125 233.578125 147.46875 230.667969 C 145.613281 228.773438 144.15625 226.5625 142.675781 224.375 C 141.265625 222.289062 140.308594 219.980469 139.339844 217.683594 C 137.957031 214.390625 136.945312 210.980469 136.574219 207.414062 C 136.265625 204.449219 136.054688 201.472656 135.792969 198.390625 C 135.550781 199.121094 135.566406 199.777344 135.554688 200.429688 Z M 148.15625 164.730469 C 148.421875 164.953125 148.605469 164.890625 148.78125 164.617188 C 149.296875 163.824219 149.828125 163.039062 150.34375 162.246094 C 151.289062 160.796875 152.375 159.464844 153.640625 158.285156 C 155.65625 156.40625 157.773438 154.640625 159.949219 152.953125 C 161.648438 151.636719 163.296875 150.246094 165.085938 149.046875 C 167.238281 147.609375 169.550781 146.460938 171.882812 145.355469 C 173.90625 144.394531 175.957031 143.503906 178.171875 143.070312 C 179.578125 142.792969 181 142.609375 182.417969 142.410156 C 185.683594 141.949219 188.9375 142.042969 192.183594 142.558594 C 194.082031 142.859375 195.964844 143.234375 197.84375 143.621094 C 198.097656 143.671875 198.355469 143.675781 198.613281 143.6875 C 198.769531 143.695312 198.90625 143.601562 198.953125 143.464844 C 199.011719 143.296875 198.863281 143.222656 198.730469 143.160156 C 198.523438 143.0625 198.316406 142.957031 198.109375 142.863281 C 196.820312 142.285156 195.460938 141.9375 194.101562 141.578125 C 191.855469 140.976562 189.59375 140.492188 187.253906 140.410156 C 183.121094 140.261719 179.074219 140.800781 175.082031 141.832031 C 169.953125 143.15625 165.144531 145.183594 160.863281 148.351562 C 156.050781 151.917969 151.722656 156.019531 147.546875 160.289062 C 146.746094 161.105469 145.976562 161.957031 145.28125 163.003906 C 146.34375 163.535156 147.316406 164.027344 148.15625 164.730469 Z M 148.15625 164.730469 " fill-opacity="1" fill-rule="nonzero"/></svg>