<svg width="45" height="40" viewBox="0 0 45 40" fill="none" xmlns="http://www.w3.org/2000/svg">
<mask id="mask0_74_292" style="mask-type:luminance" maskUnits="userSpaceOnUse" x="0" y="0" width="45" height="40">
<path d="M0 0H45V40H0V0Z" fill="white"/>
</mask>
<g mask="url(#mask0_74_292)">
<path d="M38.4896 22.2353C38.4414 21.6865 38.3476 21.1518 38.2005 20.6289C37.6614 18.719 36.8268 16.9525 35.5755 15.3913C35.3372 15.0943 35.069 14.8257 34.7877 14.5713C34.7187 14.5093 34.6471 14.4486 34.5885 14.3776C34.4349 14.1916 34.4648 14.0173 34.6758 13.8946C34.901 13.7629 35.1497 13.6828 35.3971 13.6041C35.5911 13.5421 35.7864 13.4814 35.9792 13.413C36.0625 13.3833 36.1393 13.3497 36.1979 13.2593C36.2956 13.1082 36.5364 13.1108 36.6094 13.2722C36.7565 13.6015 37.0182 13.8417 37.2226 14.1232C38.1406 15.3861 38.776 16.7807 39.263 18.2528C39.7344 19.6797 40.0273 21.1389 40.1641 22.633C40.1706 22.7143 40.1627 22.7996 40.2266 22.8861C40.5573 22.788 40.8945 22.6885 41.2435 22.6459C41.957 22.5594 42.6367 22.6343 43.2435 23.0553C43.4909 23.227 43.6888 23.4452 43.8542 23.6945C44.3672 24.4615 44.6745 25.3086 44.7812 26.2177C45.0807 28.7913 44.5273 31.1686 43.0534 33.3174C42.1628 34.6152 41.0065 35.6508 39.7213 36.5534C37.6237 38.0256 35.2982 38.9553 32.7825 39.4357C31.8763 39.6074 30.957 39.6707 30.0377 39.7211C28.3646 39.8127 26.6901 39.7908 25.0156 39.8024C24.9023 39.8024 24.7877 39.8089 24.7187 39.6939C24.6445 39.5687 24.7096 39.4628 24.7773 39.3621C25.5443 38.2154 25.9258 36.9318 26.138 35.5901C26.4193 33.8055 26.7213 32.0248 27.1953 30.2763C27.8359 27.9171 28.9323 25.7903 30.4557 23.8804C31.2266 22.9132 32.1784 22.1526 33.293 21.5961C33.8737 21.3055 34.4883 21.1441 35.1393 21.1183C35.776 21.0924 36.3698 21.2797 36.9583 21.4837C37.4935 21.6697 38.0104 21.8956 38.4896 22.2353ZM25.2266 39.3802C25.3242 39.4447 25.401 39.4266 25.4739 39.4279C26.6185 39.4318 27.763 39.4331 28.9062 39.3956C29.845 39.3659 30.7838 39.3259 31.7187 39.2187C33.1029 39.0612 34.4401 38.7151 35.7409 38.227C38.1002 37.3399 40.194 36.0408 41.888 34.1748C43.957 31.8969 44.7682 29.2045 44.3945 26.1673C44.2904 25.3138 43.9857 24.5222 43.4831 23.8133C43.2109 23.4272 42.8398 23.1753 42.3802 23.063C41.6979 22.8951 41.0325 22.992 40.375 23.1973C40.2526 23.2348 40.2239 23.3071 40.2318 23.4259C40.2539 23.7939 40.2708 24.1619 40.2812 24.5312C40.3151 25.7606 40.2643 26.9847 39.9857 28.1908C39.7305 29.2962 39.3529 30.3499 38.707 31.2965C37.5508 32.9881 36.0677 34.313 34.2187 35.2286C33.2617 35.7025 32.2995 36.1622 31.2812 36.4992C30.9583 36.6064 30.6341 36.6593 30.2956 36.5767C30.1875 36.5509 30.0547 36.5547 30.0208 36.4269C29.987 36.2952 30.0456 36.1699 30.1367 36.0744C30.1914 36.0163 30.2708 35.9749 30.3463 35.9414C30.5833 35.8355 30.819 35.7257 31.0638 35.6392C31.6185 35.4442 32.1497 35.2027 32.6641 34.9238C33.4075 34.5209 34.1497 34.1167 34.8125 33.5873C35.401 33.1172 35.9245 32.58 36.4414 32.0351C37.2656 31.1661 37.8463 30.1575 38.1745 29.0083C38.3659 28.3419 38.4909 27.6614 38.5963 26.9783C38.7969 25.6921 38.7552 24.4034 38.6393 23.1134C38.625 22.9455 38.5586 22.8215 38.431 22.7105C37.5976 21.9951 36.5963 21.6658 35.5364 21.5108C34.7695 21.3985 34.043 21.6206 33.362 21.9744C32.2044 22.5775 31.2539 23.4155 30.4739 24.4525C29.013 26.3933 28 28.5382 27.4154 30.891C27.0351 32.4264 26.7708 33.9786 26.5247 35.5372C26.3698 36.5147 26.1458 37.4742 25.7357 38.3833C25.5846 38.719 25.4088 39.0418 25.2266 39.3802ZM30.6654 36.25C30.9427 36.2487 31.1484 36.1596 31.3555 36.0821C32.2422 35.7477 33.1016 35.3512 33.9544 34.9367C35.2656 34.2975 36.4062 33.4388 37.3802 32.3631C38.125 31.5405 38.7552 30.6456 39.1575 29.6036C39.6966 28.205 39.9036 26.7523 39.9101 25.266C39.9141 24.1865 39.8346 23.1108 39.7122 22.0377C39.4948 20.142 38.9779 18.3316 38.2109 16.5883C37.7656 15.5772 37.1836 14.6462 36.4766 13.7913C36.3854 13.6816 36.3151 13.6441 36.1771 13.7113C35.9596 13.8158 35.7279 13.8856 35.4974 13.9592C35.3164 14.0173 35.1289 14.0689 34.9831 14.1774C34.9844 14.242 35.0156 14.2652 35.043 14.2885C35.6341 14.7921 36.1016 15.4016 36.5299 16.0408C38.1406 18.4452 38.944 21.1067 39.0963 23.976C39.1758 25.4868 39.0599 26.9796 38.7148 28.4556C38.5169 29.3053 38.2565 30.1343 37.7917 30.8768C36.9154 32.274 35.7669 33.4284 34.3971 34.3492C33.3568 35.0491 32.2526 35.6431 31.0547 36.0498C30.9349 36.0912 30.8073 36.126 30.6654 36.25ZM10.4232 34.7572C10.4661 34.8554 10.5586 34.8941 10.6315 34.9509C12.4362 36.3559 14.4818 37.2585 16.694 37.8138C17.2643 37.9571 17.8346 38.0436 18.4258 37.9894C18.7461 37.961 18.8711 38.0914 18.845 38.4091C18.8099 38.8352 18.7565 39.2588 18.7109 39.6836C18.6966 39.8153 18.6224 39.8554 18.4909 39.8915C17.9844 40.0323 17.487 39.9186 16.9896 39.867C15.6732 39.7288 14.3867 39.4589 13.151 38.9682C11.7812 38.4246 10.5208 37.704 9.42316 36.72C9.31509 36.6232 9.24738 36.6193 9.1354 36.7071C8.68098 37.0609 8.1927 37.3592 7.62238 37.4922C6.67707 37.7118 5.72525 37.7298 4.77863 37.5116C4.10415 37.3554 3.52733 36.9977 3.01561 36.5418C2.06249 35.696 1.40624 34.6462 0.912748 33.4891C0.472644 32.4625 0.162748 31.3998 0.0703 30.2828C-0.00131432 29.3995 0.0533731 28.5201 0.191394 27.6446C0.54556 25.399 1.32811 23.3032 2.42056 21.3133C2.81379 20.5979 3.1979 19.876 3.62238 19.1787C4.02343 18.5201 4.39061 17.8435 4.74738 17.163C4.77343 17.1126 4.79686 17.0596 4.82551 17.0106C5.00129 16.6968 5.21483 16.6787 5.39712 16.9964C5.98176 18.0165 6.83723 18.7797 7.74218 19.5054C8.74738 20.3112 9.71613 21.1583 10.6614 22.0312C12.1549 23.4091 13.0013 25.1252 13.3698 27.0919C13.5247 27.9132 13.6224 28.7435 13.595 29.5816C13.569 30.3796 13.5052 31.179 13.2083 31.9292C12.7786 33.0126 12.095 33.8882 11.0195 34.4228C10.8164 34.5235 10.6081 34.6216 10.4232 34.7572ZM8.99869 36.3288C8.91926 36.2358 8.85285 36.157 8.78514 36.0808C8.70962 35.9943 8.6315 35.9117 8.55858 35.8239C7.08723 34.0341 6.06509 32.0119 5.39191 29.8089C5.11327 28.8972 4.99087 27.9558 4.90494 27.0093C4.80598 25.931 4.75389 24.8515 4.8229 23.7694C4.83853 23.5318 4.87759 23.2967 4.95051 23.0708C5.03905 22.8009 5.23957 22.7389 5.49348 22.8693C5.68749 22.97 5.70962 23.1469 5.72395 23.3277C5.78645 24.0547 5.83983 24.7843 5.90494 25.5114C5.95702 26.0976 5.98436 26.6865 6.10806 27.2637C6.55337 29.3517 7.37499 31.2745 8.68228 32.9829C9.02342 33.431 9.3802 33.8636 9.78775 34.2536C9.98827 34.446 10.0651 34.4576 10.319 34.3246C10.5742 34.1929 10.8268 34.0586 11.0807 33.9256C11.276 33.8223 11.4518 33.6932 11.612 33.5421C12.4583 32.7492 12.957 31.7885 13.0937 30.634C13.2109 29.6371 13.181 28.648 13.0391 27.6562C12.72 25.3977 11.7552 23.4917 10.0039 21.9809C8.93488 21.0589 7.86457 20.1407 6.77603 19.242C6.17707 18.7474 5.64973 18.187 5.24348 17.5219C5.21353 17.4716 5.1979 17.398 5.10415 17.3915C4.90494 17.7595 4.71483 18.1314 4.5052 18.493C3.8828 19.5713 3.24087 20.6379 2.66796 21.7446C2.01171 23.0126 1.41535 24.3027 1.05207 25.6896C0.749988 26.8401 0.497383 27.9971 0.460925 29.1903C0.402331 31.0524 0.924467 32.7686 1.82551 34.384C2.194 35.0439 2.64712 35.6418 3.20702 36.1557C3.7591 36.6606 4.3828 37.0377 5.1341 37.163C5.96483 37.3037 6.79426 37.2766 7.61197 37.0713C8.12759 36.9434 8.57421 36.6722 8.99869 36.3288ZM5.30728 23.6002C5.22655 23.8417 5.23176 24.0586 5.22785 24.2743C5.21093 25.1666 5.25389 26.0563 5.33462 26.946C5.41535 27.8344 5.53124 28.7177 5.77733 29.5777C6.29165 31.383 7.10806 33.0488 8.16405 34.6023C8.60806 35.257 9.10806 35.8716 9.70181 36.3985C11.0273 37.5775 12.5664 38.3807 14.2604 38.8998C15.4531 39.2652 16.6836 39.4408 17.9206 39.5622C18.3945 39.6087 18.3333 39.6229 18.3659 39.18C18.375 39.0664 18.3945 38.954 18.401 38.8404C18.4088 38.7009 18.4492 38.5602 18.3997 38.4168C17.9401 38.4749 17.4935 38.431 17.0547 38.3355C15.4401 37.9816 13.8971 37.4315 12.4453 36.6425C11.2552 35.9969 10.1523 35.2324 9.19921 34.2704C8.58072 33.6441 8.09504 32.9132 7.60155 32.1901C7.1315 31.5005 6.81249 30.7373 6.48957 29.978C6.02863 28.8895 5.69139 27.7621 5.5677 26.5831C5.46483 25.603 5.39452 24.619 5.30728 23.6002ZM14.9857 7.90547C14.9505 7.9003 14.9193 7.91967 14.8893 7.94291C13.7617 8.8081 12.6237 9.66037 11.5807 10.6276C11.1667 11.0124 10.8073 11.4424 10.4987 11.9137C10.3112 12.2004 10.1224 12.4858 9.91926 12.7621C9.70051 13.0591 9.53514 13.0785 9.25129 12.8512C8.93619 12.6007 8.60676 12.3786 8.22525 12.2379C8.0703 12.181 8.01301 11.906 8.11197 11.7226C8.14322 11.6645 8.18879 11.6141 8.22915 11.5599C8.83723 10.7502 9.55077 10.0361 10.2956 9.35175C11.2864 8.44395 12.2682 7.52453 13.3685 6.74457C13.6172 6.56766 13.8711 6.3972 14.1276 6.23191C14.2266 6.16993 14.2487 6.12215 14.1927 6.00851C14.0547 5.73088 14.0963 5.43388 14.1471 5.14204C14.2969 4.28072 14.7422 3.56921 15.3229 2.93388C16.6719 1.45919 18.345 0.581086 20.3268 0.27246C22.2174 -0.021961 24.0156 0.316365 25.7617 1.04338C27.2239 1.6503 28.5117 2.52711 29.7266 3.52014C30.3021 3.99147 30.8463 4.49896 31.3906 5.00516C32.0117 5.58367 32.6432 6.14927 33.306 6.68129C33.3646 6.72907 33.4258 6.77556 33.4779 6.83109C33.6237 6.98992 33.6068 7.13584 33.4336 7.26626C33.4101 7.28305 33.3841 7.29467 33.3594 7.30887C32.013 8.0643 30.8008 9.00567 29.6029 9.96512C28.7539 10.6469 27.8685 11.2745 26.9323 11.8337C25.5534 12.6575 24.0742 13.1934 22.47 13.3587C20.5117 13.5615 18.7083 13.1405 17.0885 12.0041C16.345 11.4824 15.8489 10.7761 15.5065 9.9535C15.2474 9.32979 15.026 8.69317 15.0312 8.00361C15.0325 7.96745 15.0338 7.92613 14.9857 7.90547ZM32.9974 7.01574C32.9857 6.93181 32.9271 6.90727 32.8854 6.8737C32.0846 6.23837 31.3476 5.53202 30.5989 4.83987C29.4818 3.8081 28.3086 2.84736 26.9752 2.10356C25.4401 1.2487 23.8203 0.652109 22.0325 0.595291C19.8424 0.52556 17.901 1.16089 16.2487 2.6033C15.6471 3.12628 15.1302 3.72287 14.7891 4.45118C14.6185 4.81533 14.5013 5.19627 14.4948 5.60046C14.4909 5.91554 14.5625 5.95299 14.832 5.81094C16.8672 4.74173 19.0404 4.16451 21.332 4.00438C22.9388 3.89075 24.47 4.23295 25.9752 4.74173C26.1914 4.81533 26.3971 4.91993 26.6016 5.02194C26.7591 5.09942 26.8502 5.22597 26.8359 5.41192C26.8047 5.83289 26.5859 6.01239 26.1693 5.95557C26.1406 5.9517 26.1133 5.94266 26.0846 5.93878C25.3476 5.81998 24.6224 5.64307 23.8828 5.54493C23.2565 5.46228 22.6276 5.39255 21.9948 5.42354C21.4792 5.44808 20.9648 5.50231 20.4531 5.57721C19.7331 5.68181 19.0195 5.80965 18.3437 6.09374C17.4258 6.47855 16.5364 6.92019 15.6745 7.41476C15.6094 7.4535 15.5456 7.49612 15.4818 7.53873C15.431 7.5723 15.418 7.61879 15.4193 7.68336C15.4349 8.53434 15.6588 9.33109 16.0286 10.093C16.3724 10.8032 16.8685 11.3752 17.5364 11.8078C18.9518 12.7247 20.5052 13.103 22.1797 12.9687C23.6081 12.8538 24.9557 12.447 26.2148 11.7588C27.3672 11.1286 28.4375 10.3835 29.4505 9.5519C30.3737 8.79519 31.3437 8.10175 32.332 7.43155C32.5495 7.28305 32.7799 7.15133 32.9974 7.01574ZM8.47004 11.9021C8.82421 12.0777 9.14842 12.2404 9.42837 12.4729C9.51691 12.5465 9.57811 12.5258 9.63671 12.4354C9.80858 12.1733 9.98566 11.9137 10.1575 11.6516C10.4726 11.1725 10.8346 10.7322 11.2565 10.3422C11.9284 9.72106 12.6341 9.13739 13.3594 8.57954C13.9258 8.14436 14.4752 7.68465 15.0716 7.28821C15.7891 6.81301 16.5599 6.43336 17.3372 6.06791C18.0117 5.75025 18.6953 5.45583 19.4336 5.31249C19.9023 5.22081 20.3763 5.16012 20.8489 5.09426C21.9375 4.94188 23.0221 4.97287 24.1042 5.14333C24.737 5.24276 25.3646 5.36673 25.9909 5.49457C26.0755 5.51135 26.1614 5.51265 26.2474 5.51652C26.2995 5.5191 26.345 5.48811 26.3607 5.44291C26.3802 5.38739 26.3307 5.36285 26.2864 5.34219C26.2174 5.30991 26.1484 5.27504 26.0794 5.24405C25.6497 5.05294 25.1966 4.93801 24.7435 4.81921C23.9948 4.62034 23.2409 4.46022 22.4609 4.4331C21.0833 4.38403 19.7344 4.56223 18.4036 4.90314C16.694 5.3409 15.0911 6.0111 13.6641 7.05836C12.0599 8.23734 10.6172 9.59322 9.22525 11.0046C8.95832 11.2745 8.70181 11.556 8.47004 11.9021ZM25.2266 39.3802C25.4088 39.0418 25.5846 38.719 25.7357 38.3833C26.1458 37.4742 26.3698 36.5147 26.5247 35.5372C26.7708 33.9786 27.0351 32.4264 27.4154 30.891C28 28.5382 29.013 26.3933 30.4739 24.4525C31.2539 23.4155 32.2044 22.5775 33.362 21.9744C34.043 21.6206 34.7695 21.3985 35.5364 21.5108C36.5963 21.6658 37.5976 21.9951 38.431 22.7105C38.5586 22.8215 38.625 22.9455 38.6393 23.1134C38.7552 24.4034 38.7969 25.6921 38.5963 26.9783C38.4909 27.6614 38.3659 28.3419 38.1745 29.0083C37.8463 30.1575 37.2656 31.1661 36.4414 32.0351C35.9245 32.58 35.401 33.1172 34.8125 33.5873C34.1497 34.1167 33.4075 34.5209 32.6641 34.9238C32.1497 35.2027 31.6185 35.4442 31.0638 35.6392C30.819 35.7257 30.5833 35.8355 30.3463 35.9414C30.2708 35.9749 30.1914 36.0163 30.1367 36.0744C30.0456 36.1699 29.987 36.2952 30.0208 36.4269C30.0547 36.5547 30.1875 36.5509 30.2956 36.5767C30.6341 36.6593 30.9583 36.6064 31.2812 36.4992C32.2995 36.1622 33.2617 35.7025 34.2187 35.2286C36.0677 34.313 37.5508 32.9881 38.707 31.2965C39.3529 30.3499 39.7305 29.2962 39.9857 28.1908C40.2643 26.9847 40.3151 25.7606 40.2812 24.5312C40.2708 24.1619 40.2539 23.7939 40.2318 23.4259C40.2239 23.3071 40.2526 23.2348 40.375 23.1973C41.0325 22.992 41.6979 22.8951 42.3802 23.063C42.8398 23.1753 43.2109 23.4272 43.4831 23.8133C43.9857 24.5222 44.2904 25.3138 44.3945 26.1673C44.7682 29.2045 43.957 31.8969 41.888 34.1748C40.194 36.0408 38.1002 37.3399 35.7409 38.227C34.4401 38.7151 33.1029 39.0612 31.7187 39.2187C30.7838 39.3259 29.845 39.3659 28.9062 39.3956C27.763 39.4331 26.6185 39.4318 25.4739 39.4279C25.401 39.4266 25.3242 39.4447 25.2266 39.3802ZM8.78514 36.0808C8.70962 35.9943 8.6315 35.9117 8.55858 35.8239C7.08723 34.0341 6.06509 32.0119 5.39191 29.8089C5.11327 28.8972 4.99087 27.9558 4.90494 27.0093C4.80598 25.931 4.75389 24.8515 4.8229 23.7694C4.83853 23.5318 4.87759 23.2967 4.95051 23.0708C5.03905 22.8009 5.23957 22.7389 5.49348 22.8693C5.68749 22.97 5.70962 23.1469 5.72395 23.3277C5.78645 24.0547 5.83983 24.7843 5.90494 25.5114C5.95702 26.0976 5.98436 26.6865 6.10806 27.2637C6.55337 29.3517 7.37499 31.2745 8.68228 32.9829C9.02342 33.431 9.3802 33.8636 9.78775 34.2536C9.98827 34.446 10.0651 34.4576 10.319 34.3246C10.5742 34.1929 10.8268 34.0586 11.0807 33.9256C11.276 33.8223 11.4518 33.6932 11.612 33.5421C12.4583 32.7492 12.957 31.7885 13.0937 30.634C13.2109 29.6371 13.181 28.648 13.0391 27.6562C12.72 25.3977 11.7552 23.4917 10.0039 21.9809C8.93488 21.0589 7.86457 20.1407 6.77603 19.242C6.17707 18.7474 5.64973 18.187 5.24348 17.5219C5.21353 17.4716 5.1979 17.398 5.10415 17.3915C4.90494 17.7595 4.71483 18.1314 4.5052 18.493C3.8828 19.5713 3.24087 20.6379 2.66796 21.7446C2.01171 23.0126 1.41535 24.3027 1.05207 25.6896C0.749988 26.8401 0.497383 27.9971 0.460925 29.1903C0.402331 31.0524 0.924467 32.7686 1.82551 34.384C2.194 35.0439 2.64712 35.6418 3.20702 36.1557C3.7591 36.6606 4.3828 37.0377 5.1341 37.163C5.96483 37.3037 6.79426 37.2766 7.61197 37.0713C8.12759 36.9434 8.57421 36.6722 8.99869 36.3288C8.91926 36.2358 8.85285 36.157 8.78514 36.0808ZM32.8854 6.8737C32.0846 6.23837 31.3476 5.53202 30.5989 4.83987C29.4818 3.8081 28.3086 2.84736 26.9752 2.10356C25.4401 1.2487 23.8203 0.652109 22.0325 0.595291C19.8424 0.52556 17.901 1.16089 16.2487 2.6033C15.6471 3.12628 15.1302 3.72287 14.7891 4.45118C14.6185 4.81533 14.5013 5.19627 14.4948 5.60046C14.4909 5.91554 14.5625 5.95299 14.832 5.81094C16.8672 4.74173 19.0404 4.16451 21.332 4.00438C22.9388 3.89075 24.47 4.23295 25.9752 4.74173C26.1914 4.81533 26.3971 4.91993 26.6016 5.02194C26.7591 5.09942 26.8502 5.22597 26.8359 5.41192C26.8047 5.83289 26.5859 6.01239 26.1693 5.95557C26.1406 5.9517 26.1133 5.94266 26.0846 5.93878C25.3476 5.81998 24.6224 5.64307 23.8828 5.54493C23.2565 5.46228 22.6276 5.39255 21.9948 5.42354C21.4792 5.44808 20.9648 5.50231 20.4531 5.57721C19.7331 5.68181 19.0195 5.80965 18.3437 6.09374C17.4258 6.47855 16.5364 6.92019 15.6745 7.41476C15.6094 7.4535 15.5456 7.49612 15.4818 7.53873C15.431 7.5723 15.418 7.61879 15.4193 7.68336C15.4349 8.53434 15.6588 9.33109 16.0286 10.093C16.3724 10.8032 16.8685 11.3752 17.5364 11.8078C18.9518 12.7247 20.5052 13.103 22.1797 12.9687C23.6081 12.8538 24.9557 12.447 26.2148 11.7588C27.3672 11.1286 28.4375 10.3835 29.4505 9.5519C30.3737 8.79519 31.3437 8.10175 32.332 7.43155C32.5495 7.28305 32.7799 7.15133 32.9974 7.01574C32.9857 6.93181 32.9271 6.90727 32.8854 6.8737ZM30.6654 36.25C30.8073 36.126 30.9349 36.0912 31.0547 36.0498C32.2526 35.6431 33.3568 35.0491 34.3971 34.3492C35.7669 33.4284 36.9154 32.274 37.7917 30.8768C38.2565 30.1343 38.5169 29.3053 38.7148 28.4556C39.0599 26.9796 39.1758 25.4868 39.0963 23.976C38.944 21.1067 38.1406 18.4452 36.5299 16.0408C36.1016 15.4016 35.6341 14.7921 35.043 14.2885C35.0156 14.2652 34.9844 14.242 34.9831 14.1774C35.1289 14.0689 35.3164 14.0173 35.4974 13.9592C35.7279 13.8856 35.9596 13.8158 36.1771 13.7113C36.3151 13.6441 36.3854 13.6816 36.4766 13.7913C37.1836 14.6462 37.7656 15.5772 38.2109 16.5883C38.9779 18.3316 39.4948 20.142 39.7122 22.0377C39.8346 23.1108 39.9141 24.1865 39.9101 25.266C39.9036 26.7523 39.6966 28.205 39.1575 29.6036C38.7552 30.6456 38.125 31.5405 37.3802 32.3631C36.4062 33.4388 35.2656 34.2975 33.9544 34.9367C33.1016 35.3512 32.2422 35.7477 31.3555 36.0821C31.1484 36.1596 30.9427 36.2487 30.6654 36.25ZM5.22785 24.2743C5.21093 25.1666 5.25389 26.0563 5.33462 26.946C5.41535 27.8344 5.53124 28.7177 5.77733 29.5777C6.29165 31.383 7.10806 33.0488 8.16405 34.6023C8.60806 35.257 9.10806 35.8716 9.70181 36.3985C11.0273 37.5775 12.5664 38.3807 14.2604 38.8998C15.4531 39.2652 16.6836 39.4408 17.9206 39.5622C18.3945 39.6087 18.3333 39.6229 18.3659 39.18C18.375 39.0664 18.3945 38.954 18.401 38.8404C18.4088 38.7009 18.4492 38.5602 18.3997 38.4168C17.9401 38.4749 17.4935 38.431 17.0547 38.3355C15.4401 37.9816 13.8971 37.4315 12.4453 36.6425C11.2552 35.9969 10.1523 35.2324 9.19921 34.2704C8.58072 33.6441 8.09504 32.9132 7.60155 32.1901C7.1315 31.5005 6.81249 30.7373 6.48957 29.978C6.02863 28.8895 5.69139 27.7621 5.5677 26.5831C5.46483 25.603 5.39452 24.619 5.30728 23.6002C5.22655 23.8417 5.23176 24.0586 5.22785 24.2743ZM9.42837 12.4729C9.51691 12.5465 9.57811 12.5258 9.63671 12.4354C9.80858 12.1733 9.98566 11.9137 10.1575 11.6516C10.4726 11.1725 10.8346 10.7322 11.2565 10.3422C11.9284 9.72106 12.6341 9.13739 13.3594 8.57954C13.9258 8.14436 14.4752 7.68465 15.0716 7.28821C15.7891 6.81301 16.5599 6.43336 17.3372 6.06791C18.0117 5.75025 18.6953 5.45583 19.4336 5.31249C19.9023 5.22081 20.3763 5.16012 20.8489 5.09426C21.9375 4.94188 23.0221 4.97287 24.1042 5.14333C24.737 5.24276 25.3646 5.36673 25.9909 5.49457C26.0755 5.51135 26.1614 5.51265 26.2474 5.51652C26.2995 5.5191 26.345 5.48811 26.3607 5.44291C26.3802 5.38739 26.3307 5.36285 26.2864 5.34219C26.2174 5.30991 26.1484 5.27504 26.0794 5.24405C25.6497 5.05294 25.1966 4.93801 24.7435 4.81921C23.9948 4.62034 23.2409 4.46022 22.4609 4.4331C21.0833 4.38403 19.7344 4.56223 18.4036 4.90314C16.694 5.3409 15.0911 6.0111 13.6641 7.05836C12.0599 8.23734 10.6172 9.59322 9.22525 11.0046C8.95832 11.2745 8.70181 11.556 8.47004 11.9021C8.82421 12.0777 9.14842 12.2404 9.42837 12.4729Z" fill="#090907"/>
<path d="M38.4896 22.2353C38.4414 21.6865 38.3476 21.1518 38.2005 20.6289C37.6614 18.719 36.8268 16.9525 35.5755 15.3913C35.3372 15.0943 35.069 14.8257 34.7877 14.5713C34.7187 14.5093 34.6471 14.4486 34.5885 14.3776C34.4349 14.1916 34.4648 14.0173 34.6758 13.8946C34.901 13.7629 35.1497 13.6828 35.3971 13.6041C35.5911 13.5421 35.7864 13.4814 35.9792 13.413C36.0625 13.3833 36.1393 13.3497 36.1979 13.2593C36.2956 13.1082 36.5364 13.1108 36.6094 13.2722C36.7565 13.6015 37.0182 13.8417 37.2226 14.1232C38.1406 15.3861 38.776 16.7807 39.263 18.2528C39.7344 19.6797 40.0273 21.1389 40.1641 22.633C40.1706 22.7143 40.1627 22.7996 40.2266 22.8861C40.5573 22.788 40.8945 22.6885 41.2435 22.6459C41.957 22.5594 42.6367 22.6343 43.2435 23.0553C43.4909 23.227 43.6888 23.4452 43.8542 23.6945C44.3672 24.4615 44.6745 25.3086 44.7812 26.2177C45.0807 28.7913 44.5273 31.1686 43.0534 33.3174C42.1628 34.6152 41.0065 35.6508 39.7213 36.5534C37.6237 38.0256 35.2982 38.9553 32.7825 39.4357C31.8763 39.6074 30.957 39.6707 30.0377 39.7211C28.3646 39.8127 26.6901 39.7908 25.0156 39.8024C24.9023 39.8024 24.7877 39.8089 24.7187 39.6939C24.6445 39.5687 24.7096 39.4628 24.7773 39.3621C25.5443 38.2154 25.9258 36.9318 26.138 35.5901C26.4193 33.8055 26.7213 32.0248 27.1953 30.2763C27.8359 27.9171 28.9323 25.7903 30.4557 23.8804C31.2266 22.9132 32.1784 22.1526 33.293 21.5961C33.8737 21.3055 34.4883 21.1441 35.1393 21.1183C35.776 21.0924 36.3698 21.2797 36.9583 21.4837C37.4935 21.6697 38.0104 21.8956 38.4896 22.2353ZM25.2266 39.3802C25.3242 39.4447 25.401 39.4266 25.4739 39.4279C26.6185 39.4318 27.763 39.4331 28.9062 39.3956C29.845 39.3659 30.7838 39.3259 31.7187 39.2187C33.1029 39.0612 34.4401 38.7151 35.7409 38.227C38.1002 37.3399 40.194 36.0408 41.888 34.1748C43.957 31.8969 44.7682 29.2045 44.3945 26.1673C44.2904 25.3138 43.9857 24.5222 43.4831 23.8133C43.2109 23.4272 42.8398 23.1753 42.3802 23.063C41.6979 22.8951 41.0325 22.992 40.375 23.1973C40.2526 23.2348 40.2239 23.3071 40.2318 23.4259C40.2539 23.7939 40.2708 24.1619 40.2812 24.5312C40.3151 25.7606 40.2643 26.9847 39.9857 28.1908C39.7305 29.2962 39.3529 30.3499 38.707 31.2965C37.5508 32.9881 36.0677 34.313 34.2187 35.2286C33.2617 35.7025 32.2995 36.1622 31.2812 36.4992C30.9583 36.6064 30.6341 36.6593 30.2956 36.5767C30.1875 36.5509 30.0547 36.5547 30.0208 36.4269C29.987 36.2952 30.0456 36.1699 30.1367 36.0744C30.1914 36.0163 30.2708 35.9749 30.3463 35.9414C30.5833 35.8355 30.819 35.7257 31.0638 35.6392C31.6185 35.4442 32.1497 35.2027 32.6641 34.9238C33.4075 34.5209 34.1497 34.1167 34.8125 33.5873C35.401 33.1172 35.9245 32.58 36.4414 32.0351C37.2656 31.1661 37.8463 30.1575 38.1745 29.0083C38.3659 28.3419 38.4909 27.6614 38.5963 26.9783C38.7969 25.6921 38.7552 24.4034 38.6393 23.1134C38.625 22.9455 38.5586 22.8215 38.431 22.7105C37.5976 21.9951 36.5963 21.6658 35.5364 21.5108C34.7695 21.3985 34.043 21.6206 33.362 21.9744C32.2044 22.5775 31.2539 23.4155 30.4739 24.4525C29.013 26.3933 28 28.5382 27.4154 30.891C27.0351 32.4264 26.7708 33.9786 26.5247 35.5372C26.3698 36.5147 26.1458 37.4742 25.7357 38.3833C25.5846 38.719 25.4088 39.0418 25.2266 39.3802ZM30.6654 36.25C30.9427 36.2487 31.1484 36.1596 31.3555 36.0821C32.2422 35.7477 33.1016 35.3512 33.9544 34.9367C35.2656 34.2975 36.4062 33.4388 37.3802 32.3631C38.125 31.5405 38.7552 30.6456 39.1575 29.6036C39.6966 28.205 39.9036 26.7523 39.9101 25.266C39.9141 24.1865 39.8346 23.1108 39.7122 22.0377C39.4948 20.142 38.9779 18.3316 38.2109 16.5883C37.7656 15.5772 37.1836 14.6462 36.4766 13.7913C36.3854 13.6816 36.3151 13.6441 36.1771 13.7113C35.9596 13.8158 35.7279 13.8856 35.4974 13.9592C35.3164 14.0173 35.1289 14.0689 34.9831 14.1774C34.9844 14.242 35.0156 14.2652 35.043 14.2885C35.6341 14.7921 36.1016 15.4016 36.5299 16.0408C38.1406 18.4452 38.944 21.1067 39.0963 23.976C39.1758 25.4868 39.0599 26.9796 38.7148 28.4556C38.5169 29.3053 38.2565 30.1343 37.7917 30.8768C36.9154 32.274 35.7669 33.4284 34.3971 34.3492C33.3568 35.0491 32.2526 35.6431 31.0547 36.0498C30.9349 36.0912 30.8073 36.126 30.6654 36.25ZM10.4232 34.7572C10.4661 34.8554 10.5586 34.8941 10.6315 34.9509C12.4362 36.3559 14.4818 37.2585 16.694 37.8138C17.2643 37.9571 17.8346 38.0436 18.4258 37.9894C18.7461 37.961 18.8711 38.0914 18.845 38.4091C18.8099 38.8352 18.7565 39.2588 18.7109 39.6836C18.6966 39.8153 18.6224 39.8554 18.4909 39.8915C17.9844 40.0323 17.487 39.9186 16.9896 39.867C15.6732 39.7288 14.3867 39.4589 13.151 38.9682C11.7812 38.4246 10.5208 37.704 9.42316 36.72C9.31509 36.6232 9.24738 36.6193 9.1354 36.7071C8.68098 37.0609 8.1927 37.3592 7.62238 37.4922C6.67707 37.7118 5.72525 37.7298 4.77863 37.5116C4.10415 37.3554 3.52733 36.9977 3.01561 36.5418C2.06249 35.696 1.40624 34.6462 0.912748 33.4891C0.472644 32.4625 0.162748 31.3998 0.0703 30.2828C-0.00131432 29.3995 0.0533731 28.5201 0.191394 27.6446C0.54556 25.399 1.32811 23.3032 2.42056 21.3133C2.81379 20.5979 3.1979 19.876 3.62238 19.1787C4.02343 18.5201 4.39061 17.8435 4.74738 17.163C4.77343 17.1126 4.79686 17.0596 4.82551 17.0106C5.00129 16.6968 5.21483 16.6787 5.39712 16.9964C5.98176 18.0165 6.83723 18.7797 7.74218 19.5054C8.74738 20.3112 9.71613 21.1583 10.6614 22.0312C12.1549 23.4091 13.0013 25.1252 13.3698 27.0919C13.5247 27.9132 13.6224 28.7435 13.595 29.5816C13.569 30.3796 13.5052 31.179 13.2083 31.9292C12.7786 33.0126 12.095 33.8882 11.0195 34.4228C10.8164 34.5235 10.6081 34.6216 10.4232 34.7572ZM8.99869 36.3288C8.91926 36.2358 8.85285 36.157 8.78514 36.0808C8.70962 35.9943 8.6315 35.9117 8.55858 35.8239C7.08723 34.0341 6.06509 32.0119 5.39191 29.8089C5.11327 28.8972 4.99087 27.9558 4.90494 27.0093C4.80598 25.931 4.75389 24.8515 4.8229 23.7694C4.83853 23.5318 4.87759 23.2967 4.95051 23.0708C5.03905 22.8009 5.23957 22.7389 5.49348 22.8693C5.68749 22.97 5.70962 23.1469 5.72395 23.3277C5.78645 24.0547 5.83983 24.7843 5.90494 25.5114C5.95702 26.0976 5.98436 26.6865 6.10806 27.2637C6.55337 29.3517 7.37499 31.2745 8.68228 32.9829C9.02342 33.431 9.3802 33.8636 9.78775 34.2536C9.98827 34.446 10.0651 34.4576 10.319 34.3246C10.5742 34.1929 10.8268 34.0586 11.0807 33.9256C11.276 33.8223 11.4518 33.6932 11.612 33.5421C12.4583 32.7492 12.957 31.7885 13.0937 30.634C13.2109 29.6371 13.181 28.648 13.0391 27.6562C12.72 25.3977 11.7552 23.4917 10.0039 21.9809C8.93488 21.0589 7.86457 20.1407 6.77603 19.242C6.17707 18.7474 5.64973 18.187 5.24348 17.5219C5.21353 17.4716 5.1979 17.398 5.10415 17.3915C4.90494 17.7595 4.71483 18.1314 4.5052 18.493C3.8828 19.5713 3.24087 20.6379 2.66796 21.7446C2.01171 23.0126 1.41535 24.3027 1.05207 25.6896C0.749988 26.8401 0.497383 27.9971 0.460925 29.1903C0.402331 31.0524 0.924467 32.7686 1.82551 34.384C2.194 35.0439 2.64712 35.6418 3.20702 36.1557C3.7591 36.6606 4.3828 37.0377 5.1341 37.163C5.96483 37.3037 6.79426 37.2766 7.61197 37.0713C8.12759 36.9434 8.57421 36.6722 8.99869 36.3288ZM5.30728 23.6002C5.22655 23.8417 5.23176 24.0586 5.22785 24.2743C5.21093 25.1666 5.25389 26.0563 5.33462 26.946C5.41535 27.8344 5.53124 28.7177 5.77733 29.5777C6.29165 31.383 7.10806 33.0488 8.16405 34.6023C8.60806 35.257 9.10806 35.8716 9.70181 36.3985C11.0273 37.5775 12.5664 38.3807 14.2604 38.8998C15.4531 39.2652 16.6836 39.4408 17.9206 39.5622C18.3945 39.6087 18.3333 39.6229 18.3659 39.18C18.375 39.0664 18.3945 38.954 18.401 38.8404C18.4088 38.7009 18.4492 38.5602 18.3997 38.4168C17.9401 38.4749 17.4935 38.431 17.0547 38.3355C15.4401 37.9816 13.8971 37.4315 12.4453 36.6425C11.2552 35.9969 10.1523 35.2324 9.19921 34.2704C8.58072 33.6441 8.09504 32.9132 7.60155 32.1901C7.1315 31.5005 6.81249 30.7373 6.48957 29.978C6.02863 28.8895 5.69139 27.7621 5.5677 26.5831C5.46483 25.603 5.39452 24.619 5.30728 23.6002ZM14.9857 7.90547C14.9505 7.9003 14.9193 7.91967 14.8893 7.94291C13.7617 8.8081 12.6237 9.66037 11.5807 10.6276C11.1667 11.0124 10.8073 11.4424 10.4987 11.9137C10.3112 12.2004 10.1224 12.4858 9.91926 12.7621C9.70051 13.0591 9.53514 13.0785 9.25129 12.8512C8.93619 12.6007 8.60676 12.3786 8.22525 12.2379C8.0703 12.181 8.01301 11.906 8.11197 11.7226C8.14322 11.6645 8.18879 11.6141 8.22915 11.5599C8.83723 10.7502 9.55077 10.0361 10.2956 9.35175C11.2864 8.44395 12.2682 7.52453 13.3685 6.74457C13.6172 6.56766 13.8711 6.3972 14.1276 6.23191C14.2266 6.16993 14.2487 6.12215 14.1927 6.00851C14.0547 5.73088 14.0963 5.43388 14.1471 5.14204C14.2969 4.28072 14.7422 3.56921 15.3229 2.93388C16.6719 1.45919 18.345 0.581086 20.3268 0.27246C22.2174 -0.021961 24.0156 0.316365 25.7617 1.04338C27.2239 1.6503 28.5117 2.52711 29.7266 3.52014C30.3021 3.99147 30.8463 4.49896 31.3906 5.00516C32.0117 5.58367 32.6432 6.14927 33.306 6.68129C33.3646 6.72907 33.4258 6.77556 33.4779 6.83109C33.6237 6.98992 33.6068 7.13584 33.4336 7.26626C33.4101 7.28305 33.3841 7.29467 33.3594 7.30887C32.013 8.0643 30.8008 9.00567 29.6029 9.96512C28.7539 10.6469 27.8685 11.2745 26.9323 11.8337C25.5534 12.6575 24.0742 13.1934 22.47 13.3587C20.5117 13.5615 18.7083 13.1405 17.0885 12.0041C16.345 11.4824 15.8489 10.7761 15.5065 9.9535C15.2474 9.32979 15.026 8.69317 15.0312 8.00361C15.0325 7.96745 15.0338 7.92613 14.9857 7.90547ZM32.9974 7.01574C32.9857 6.93181 32.9271 6.90727 32.8854 6.8737C32.0846 6.23837 31.3476 5.53202 30.5989 4.83987C29.4818 3.8081 28.3086 2.84736 26.9752 2.10356C25.4401 1.2487 23.8203 0.652109 22.0325 0.595291C19.8424 0.52556 17.901 1.16089 16.2487 2.6033C15.6471 3.12628 15.1302 3.72287 14.7891 4.45118C14.6185 4.81533 14.5013 5.19627 14.4948 5.60046C14.4909 5.91554 14.5625 5.95299 14.832 5.81094C16.8672 4.74173 19.0404 4.16451 21.332 4.00438C22.9388 3.89075 24.47 4.23295 25.9752 4.74173C26.1914 4.81533 26.3971 4.91993 26.6016 5.02194C26.7591 5.09942 26.8502 5.22597 26.8359 5.41192C26.8047 5.83289 26.5859 6.01239 26.1693 5.95557C26.1406 5.9517 26.1133 5.94266 26.0846 5.93878C25.3476 5.81998 24.6224 5.64307 23.8828 5.54493C23.2565 5.46228 22.6276 5.39255 21.9948 5.42354C21.4792 5.44808 20.9648 5.50231 20.4531 5.57721C19.7331 5.68181 19.0195 5.80965 18.3437 6.09374C17.4258 6.47855 16.5364 6.92019 15.6745 7.41476C15.6094 7.4535 15.5456 7.49612 15.4818 7.53873C15.431 7.5723 15.418 7.61879 15.4193 7.68336C15.4349 8.53434 15.6588 9.33109 16.0286 10.093C16.3724 10.8032 16.8685 11.3752 17.5364 11.8078C18.9518 12.7247 20.5052 13.103 22.1797 12.9687C23.6081 12.8538 24.9557 12.447 26.2148 11.7588C27.3672 11.1286 28.4375 10.3835 29.4505 9.5519C30.3737 8.79519 31.3437 8.10175 32.332 7.43155C32.5495 7.28305 32.7799 7.15133 32.9974 7.01574ZM8.47004 11.9021C8.82421 12.0777 9.14842 12.2404 9.42837 12.4729C9.51691 12.5465 9.57811 12.5258 9.63671 12.4354C9.80858 12.1733 9.98566 11.9137 10.1575 11.6516C10.4726 11.1725 10.8346 10.7322 11.2565 10.3422C11.9284 9.72106 12.6341 9.13739 13.3594 8.57954C13.9258 8.14436 14.4752 7.68465 15.0716 7.28821C15.7891 6.81301 16.5599 6.43336 17.3372 6.06791C18.0117 5.75025 18.6953 5.45583 19.4336 5.31249C19.9023 5.22081 20.3763 5.16012 20.8489 5.09426C21.9375 4.94188 23.0221 4.97287 24.1042 5.14333C24.737 5.24276 25.3646 5.36673 25.9909 5.49457C26.0755 5.51135 26.1614 5.51265 26.2474 5.51652C26.2995 5.5191 26.345 5.48811 26.3607 5.44291C26.3802 5.38739 26.3307 5.36285 26.2864 5.34219C26.2174 5.30991 26.1484 5.27504 26.0794 5.24405C25.6497 5.05294 25.1966 4.93801 24.7435 4.81921C23.9948 4.62034 23.2409 4.46022 22.4609 4.4331C21.0833 4.38403 19.7344 4.56223 18.4036 4.90314C16.694 5.3409 15.0911 6.0111 13.6641 7.05836C12.0599 8.23734 10.6172 9.59322 9.22525 11.0046C8.95832 11.2745 8.70181 11.556 8.47004 11.9021Z" fill="#090907"/>
</g>
<path d="M25.2266 39.3802C25.4088 39.0418 25.5846 38.719 25.7357 38.3833C26.1458 37.4742 26.3698 36.5147 26.5247 35.5372C26.7708 33.9786 27.0351 32.4264 27.4154 30.891C28 28.5382 29.013 26.3933 30.4739 24.4525C31.2539 23.4156 32.2044 22.5775 33.362 21.9744C34.043 21.6206 34.7695 21.3985 35.5364 21.5109C36.5963 21.6658 37.5976 21.9951 38.431 22.7105C38.5586 22.8215 38.625 22.9455 38.6393 23.1134C38.7552 24.4034 38.7969 25.6922 38.5963 26.9783C38.4909 27.6614 38.3659 28.342 38.1745 29.0083C37.8463 30.1576 37.2656 31.1661 36.4414 32.0351C35.9245 32.5801 35.401 33.1173 34.8125 33.5873C34.1497 34.1167 33.4075 34.5209 32.6641 34.9238C32.1497 35.2027 31.6185 35.4442 31.0638 35.6392C30.819 35.7257 30.5833 35.8355 30.3463 35.9414C30.2708 35.975 30.1914 36.0163 30.1367 36.0744C30.0456 36.1699 29.987 36.2952 30.0208 36.4269C30.0547 36.5548 30.1875 36.5509 30.2956 36.5767C30.6341 36.6594 30.9583 36.6064 31.2812 36.4992C32.2995 36.1622 33.2617 35.7025 34.2187 35.2286C36.0677 34.313 37.5508 32.9881 38.707 31.2965C39.3529 30.35 39.7305 29.2962 39.9857 28.1909C40.2643 26.9848 40.3151 25.7606 40.2812 24.5313C40.2708 24.1619 40.2539 23.7939 40.2318 23.4259C40.2239 23.3071 40.2526 23.2348 40.375 23.1973C41.0325 22.992 41.6979 22.8952 42.3802 23.063C42.8398 23.1754 43.2109 23.4272 43.4831 23.8133C43.9857 24.5222 44.2904 25.3138 44.3945 26.1674C44.7682 29.2046 43.957 31.897 41.888 34.1749C40.194 36.0408 38.1003 37.3399 35.7409 38.227C34.4401 38.7151 33.1029 39.0612 31.7187 39.2188C30.7838 39.3259 29.845 39.366 28.9062 39.3957C27.763 39.4331 26.6185 39.4318 25.4739 39.428C25.401 39.4267 25.3242 39.4447 25.2266 39.3802ZM8.78515 36.0808C8.70963 35.9943 8.6315 35.9117 8.55858 35.8239C7.08723 34.0341 6.06509 32.0119 5.39192 29.8089C5.11327 28.8972 4.99087 27.9558 4.90494 27.0093C4.80598 25.9311 4.7539 24.8515 4.82291 23.7694C4.83853 23.5318 4.87759 23.2968 4.95051 23.0708C5.03905 22.8009 5.23957 22.7389 5.49348 22.8693C5.68749 22.9701 5.70962 23.147 5.72395 23.3277C5.78645 24.0548 5.83983 24.7844 5.90494 25.5114C5.95702 26.0976 5.98436 26.6865 6.10806 27.2637C6.55337 29.3518 7.37499 31.2745 8.68228 32.983C9.02343 33.4311 9.3802 33.8636 9.78775 34.2536C9.98827 34.446 10.0651 34.4577 10.319 34.3246C10.5742 34.1929 10.8268 34.0586 11.0807 33.9256C11.276 33.8223 11.4518 33.6932 11.612 33.5421C12.4583 32.7492 12.957 31.7885 13.0937 30.634C13.2109 29.6371 13.181 28.648 13.0391 27.6563C12.72 25.3977 11.7552 23.4917 10.0039 21.9809C8.93489 21.0589 7.86457 20.1408 6.77603 19.242C6.17707 18.7474 5.64973 18.187 5.24348 17.522C5.21353 17.4716 5.19791 17.398 5.10416 17.3915C4.90494 17.7596 4.71483 18.1315 4.5052 18.493C3.8828 19.5713 3.24087 20.6379 2.66796 21.7446C2.01171 23.0127 1.41535 24.3027 1.05207 25.6896C0.749989 26.8401 0.497385 27.9972 0.460927 29.1903C0.402333 31.0524 0.924469 32.7686 1.82551 34.384C2.194 35.0439 2.64712 35.6418 3.20702 36.1557C3.7591 36.6606 4.3828 37.0377 5.1341 37.163C5.96483 37.3037 6.79426 37.2766 7.61197 37.0713C8.12759 36.9434 8.57421 36.6723 8.99869 36.3288C8.91926 36.2358 8.85285 36.157 8.78515 36.0808ZM32.8854 6.87372C32.0846 6.23839 31.3476 5.53203 30.5989 4.83989C29.4818 3.80812 28.3086 2.84738 26.9753 2.10357C25.4401 1.24872 23.8203 0.652127 22.0325 0.595309C19.8424 0.525578 17.901 1.16091 16.2487 2.60332C15.6471 3.1263 15.1302 3.72289 14.7891 4.4512C14.6185 4.81535 14.5013 5.19629 14.4948 5.60047C14.4909 5.91556 14.5625 5.95301 14.832 5.81096C16.8672 4.74175 19.0404 4.16452 21.332 4.0044C22.9388 3.89076 24.47 4.23296 25.9753 4.74175C26.1914 4.81535 26.3971 4.91995 26.6016 5.02196C26.7591 5.09944 26.8503 5.22599 26.8359 5.41194C26.8047 5.83291 26.5859 6.01241 26.1693 5.95559C26.1406 5.95171 26.1133 5.94267 26.0846 5.9388C25.3476 5.82 24.6224 5.64309 23.8828 5.54495C23.2565 5.4623 22.6276 5.39257 21.9948 5.42356C21.4792 5.4481 20.9648 5.50233 20.4531 5.57723C19.7331 5.68183 19.0195 5.80967 18.3437 6.09376C17.4258 6.47857 16.5364 6.92021 15.6745 7.41478C15.6094 7.45352 15.5456 7.49614 15.4818 7.53875C15.431 7.57232 15.418 7.61881 15.4193 7.68338C15.4349 8.53436 15.6588 9.3311 16.0286 10.093C16.3724 10.8032 16.8685 11.3753 17.5364 11.8079C18.9518 12.7247 20.5052 13.1031 22.1797 12.9688C23.6081 12.8538 24.9557 12.4471 26.2148 11.7588C27.3672 11.1286 28.4375 10.3835 29.4505 9.55192C30.3737 8.79521 31.3437 8.10177 32.332 7.43157C32.5495 7.28307 32.7799 7.15135 32.9974 7.01576C32.9857 6.93183 32.9271 6.90729 32.8854 6.87372Z" fill="#87C75C"/>
<path d="M30.6654 36.25C30.8073 36.126 30.9349 36.0912 31.0547 36.0498C32.2526 35.6431 33.3568 35.0491 34.3972 34.3492C35.7669 33.4285 36.9154 32.274 37.7917 30.8768C38.2565 30.1343 38.5169 29.3053 38.7149 28.4556C39.0599 26.9796 39.1758 25.4868 39.0964 23.976C38.944 21.1067 38.1406 18.4452 36.53 16.0408C36.1016 15.4016 35.6341 14.7921 35.043 14.2885C35.0156 14.2652 34.9844 14.242 34.9831 14.1774C35.1289 14.069 35.3164 14.0173 35.4974 13.9592C35.7279 13.8856 35.9597 13.8159 36.1771 13.7113C36.3151 13.6441 36.3854 13.6816 36.4766 13.7913C37.1836 14.6462 37.7656 15.5772 38.211 16.5883C38.9779 18.3316 39.4948 20.142 39.7123 22.0377C39.8347 23.1108 39.9141 24.1865 39.9102 25.266C39.9037 26.7523 39.6966 28.2051 39.1576 29.6036C38.7552 30.6457 38.125 31.5405 37.3802 32.3631C36.4063 33.4388 35.2656 34.2975 33.9544 34.9367C33.1016 35.3512 32.2422 35.7477 31.3555 36.0821C31.1485 36.1596 30.9427 36.2487 30.6654 36.25ZM5.22788 24.2743C5.21095 25.1666 5.25392 26.0563 5.33465 26.946C5.41538 27.8345 5.53127 28.7177 5.77736 29.5777C6.29168 31.383 7.10809 33.0488 8.16408 34.6023C8.60809 35.257 9.10809 35.8716 9.70184 36.3985C11.0274 37.5775 12.5664 38.3807 14.2604 38.8998C15.4531 39.2652 16.6836 39.4409 17.9206 39.5622C18.3945 39.6087 18.3334 39.6229 18.3659 39.18C18.375 39.0664 18.3945 38.954 18.4011 38.8404C18.4089 38.7009 18.4492 38.5602 18.3998 38.4168C17.9401 38.4749 17.4935 38.431 17.0547 38.3355C15.4401 37.9817 13.8972 37.4316 12.4453 36.6426C11.2552 35.9969 10.1524 35.2324 9.19924 34.2704C8.58075 33.6441 8.09507 32.9132 7.60158 32.1901C7.13153 31.5005 6.81252 30.7373 6.4896 29.978C6.02866 28.8895 5.69142 27.7621 5.56772 26.5832C5.46486 25.603 5.39455 24.6191 5.30731 23.6002C5.22658 23.8417 5.23179 24.0586 5.22788 24.2743ZM9.4284 12.4729C9.51694 12.5465 9.57814 12.5258 9.63674 12.4354C9.80861 12.1733 9.98569 11.9137 10.1576 11.6516C10.4727 11.1725 10.8347 10.7322 11.2565 10.3422C11.9284 9.72107 12.6341 9.1374 13.3594 8.57954C13.9258 8.14437 14.4753 7.68466 15.0716 7.28822C15.7891 6.81302 16.5599 6.43337 17.3373 6.06792C18.0117 5.75026 18.6953 5.45584 19.4336 5.3125C19.9024 5.22082 20.3763 5.16012 20.849 5.09427C21.9375 4.94189 23.0222 4.97288 24.1042 5.14334C24.737 5.24277 25.3646 5.36673 25.9909 5.49458C26.0755 5.51136 26.1615 5.51265 26.2474 5.51653C26.2995 5.51911 26.3451 5.48812 26.3607 5.44292C26.3802 5.3874 26.3307 5.36286 26.2865 5.3422C26.2175 5.30992 26.1485 5.27505 26.0794 5.24406C25.6498 5.05294 25.1966 4.93802 24.7435 4.81921C23.9948 4.62035 23.2409 4.46023 22.461 4.43311C21.0834 4.38404 19.7344 4.56224 18.4037 4.90315C16.694 5.34091 15.0912 6.0111 13.6641 7.05837C12.0599 8.23734 10.6172 9.59323 9.22528 11.0046C8.95835 11.2745 8.70184 11.556 8.47007 11.9021C8.82424 12.0777 9.14845 12.2404 9.4284 12.4729Z" fill="#414B3B"/>
</svg>
