<svg width="139" height="142" viewBox="0 0 139 142" fill="none" xmlns="http://www.w3.org/2000/svg">
<path d="M101.765 128.361C102.332 127.861 102.843 127.72 103.322 127.553C108.114 125.913 112.53 123.517 116.692 120.694C122.171 116.98 126.765 112.324 130.27 106.689C132.129 103.694 133.171 100.35 133.963 96.923C135.343 90.9699 135.806 84.9491 135.489 78.8553C134.879 67.2824 131.666 56.548 125.223 46.8501C123.509 44.272 121.64 41.8136 119.275 39.7824C119.166 39.6886 119.041 39.5949 119.035 39.3345C119.619 38.897 120.369 38.6886 121.093 38.4543C122.015 38.1574 122.942 37.8761 123.811 37.4543C124.364 37.1834 124.645 37.3345 125.009 37.7772C127.838 41.2251 130.166 44.9803 131.947 49.0584C135.015 56.0897 137.082 63.3918 137.952 71.0376C138.442 75.3657 138.759 79.7043 138.744 84.0584C138.718 90.0532 137.89 95.9126 135.733 101.553C134.124 105.756 131.603 109.366 128.624 112.683C124.728 117.022 120.166 120.486 114.921 123.064C111.509 124.736 108.072 126.334 104.525 127.683C103.697 127.996 102.874 128.355 101.765 128.361ZM0.0146117 80.0584C-0.0530976 83.6574 0.118778 87.2459 0.441695 90.8345C0.764612 94.4178 1.22815 97.9803 2.21253 101.449C4.26982 108.73 7.53544 115.449 11.7594 121.715C13.5354 124.355 15.5354 126.834 17.9104 128.959C23.2125 133.715 29.3688 136.954 36.1448 139.048C40.9157 140.522 45.8375 141.23 50.7854 141.72C52.6813 141.907 52.4365 141.965 52.5667 140.178C52.6032 139.72 52.6813 139.267 52.7073 138.808C52.7386 138.246 52.9 137.678 52.7021 137.1C50.8636 137.334 49.0771 137.157 47.3219 136.772C40.8636 135.345 34.6917 133.126 28.8844 129.944C24.124 127.34 19.7125 124.256 15.9 120.376C13.4261 117.85 11.4834 114.902 9.5094 111.986C7.6292 109.204 6.35315 106.126 5.06149 103.064C3.21774 98.673 1.86878 94.1261 1.37399 89.3709C0.962528 85.4178 0.681279 81.4491 0.33232 77.3397C0.00940271 78.3136 0.0302357 79.1886 0.0146117 80.0584ZM16.8167 32.4595C17.1709 32.7563 17.4157 32.673 17.65 32.3084C18.3375 31.2511 19.0459 30.2043 19.7334 29.147C20.9938 27.2147 22.4417 25.4386 24.1292 23.8657C26.8167 21.3605 29.6396 19.0063 32.5407 16.7563C34.8063 15.0011 37.0042 13.147 39.3896 11.548C42.2594 9.63134 45.3427 8.10009 48.4521 6.62613C51.15 5.34488 53.8844 4.15738 56.8375 3.57926C58.7125 3.20947 60.6084 2.96468 62.499 2.69905C66.8532 2.08447 71.1917 2.20947 75.5198 2.89697C78.0511 3.29801 80.5615 3.79801 83.0667 4.31363C83.4052 4.38134 83.749 4.38655 84.0927 4.40218C84.3011 4.41259 84.4834 4.28759 84.5459 4.1053C84.624 3.88134 84.4261 3.78238 84.249 3.69905C83.9729 3.56884 83.6969 3.42822 83.4209 3.30322C81.7021 2.53238 79.8896 2.06884 78.0771 1.58968C75.0823 0.787592 72.0667 0.14176 68.9469 0.0323842C63.4365 -0.165532 58.0407 0.553218 52.7177 1.92822C45.8792 3.69384 39.4677 6.39697 33.7594 10.6209C27.3427 15.3761 21.5719 20.8449 16.0042 26.5376C14.9365 27.6261 13.9104 28.7616 12.9834 30.1574C14.4 30.8657 15.6969 31.522 16.8167 32.4595Z" fill="#414B3B" fill-opacity="0.6"/>
</svg>
